<svg width="48" height="48" viewBox="0 0 48 48" fill="none" xmlns="http://www.w3.org/2000/svg">
<rect width="48" height="48" rx="8" fill="#131D3B"/>
<path fill-rule="evenodd" clip-rule="evenodd" d="M18.2422 39.5046L23.5047 34.2421C23.8276 33.9192 24.3512 33.9192 24.6742 34.2421L29.9367 39.5046C30.2596 39.8275 30.2596 40.3511 29.9367 40.6741C29.6137 40.997 29.0901 40.997 28.7672 40.6741L24.0894 35.9963L19.4116 40.6741C19.0887 40.997 18.5651 40.997 18.2422 40.6741C17.9193 40.3511 17.9193 39.8275 18.2422 39.5046Z" fill="white"/>
<path fill-rule="evenodd" clip-rule="evenodd" d="M16.2791 27.7743C16.3108 27.009 16.4094 26.2979 16.5627 25.6377L16.5597 25.64L10 19.045L17.7426 22.7883L17.7606 22.7644C17.9609 22.4574 18.1778 22.1718 18.409 21.9065L18.429 21.8802L14.8815 10.9306L21.3716 19.85L21.4097 19.8383C21.6519 19.7494 21.8978 19.6732 22.1467 19.6103L22.1789 19.6003L24.1594 6L26.2213 19.7133L26.2643 19.729C26.4868 19.7984 26.7067 19.8784 26.9237 19.9687L26.9665 19.9844L33.4619 10.9731L29.7798 22.0373L29.7834 22.0418C29.9634 22.2496 30.1344 22.4706 30.2968 22.7026L30.3116 22.7217L38.1801 18.9838L31.632 25.6256L31.6286 25.6226C31.8055 26.2856 31.9288 26.9996 31.986 27.7683C29.0277 22.3957 18.9042 22.5526 16.2791 27.7743V27.7743ZM21.2997 32.3071C21.4683 29.371 26.6904 29.3689 26.9911 32.305C25.9192 30.0141 22.2508 30.086 21.2997 32.3071ZM19.2785 31.6169C19.5656 26.6171 28.4575 26.6137 28.9696 31.6132C27.1443 27.7122 20.8981 27.8347 19.2785 31.6169ZM17.1489 30.7054C17.5589 23.566 30.2565 23.5611 30.9877 30.7002C28.3811 25.1297 19.4616 25.3047 17.1489 30.7054V30.7054Z" fill="white"/>
</svg>
