<svg width="74" height="74" viewBox="0 0 74 74" fill="none" xmlns="http://www.w3.org/2000/svg">
<rect width="74" height="74" rx="6" fill="#FF8901"/>
<g clip-path="url(#clip0)">
<path d="M19.5257 51.7008C19.5527 51.9273 19.6707 52.1331 19.8524 52.2708C20.0343 52.4088 20.2643 52.4663 20.4896 52.4313C20.5401 52.4233 25.5623 51.65 28.189 52.4084C31.977 53.5027 34.5163 56.2187 35.1566 56.9625C35.3192 58.6643 36.7564 59.9999 38.5002 59.9999C40.2443 59.9999 41.6818 58.6637 41.8438 56.9614C42.482 56.2166 45.0069 53.5074 48.8113 52.4083C51.4338 51.6514 56.4605 52.4233 56.5109 52.4312C56.9816 52.5047 57.4186 52.1723 57.4747 51.7008L58.2877 44.8718C58.3425 44.4113 58.0136 43.9934 57.553 43.9386C57.0929 43.8843 56.6747 44.2127 56.6198 44.6732L55.9077 50.6549C54.2584 50.4549 50.6382 50.1326 48.3452 50.7946C45.4296 51.6369 43.2113 53.2918 41.8596 54.537V33.1711C42.3172 32.3693 44.6 28.7578 48.5783 28.7578C51.6724 28.7578 55.3879 29.7926 58.2518 30.964L57.5134 37.1673C57.454 37.6657 57.8428 38.1065 58.3483 38.1065C58.7678 38.1065 59.1304 37.7927 59.1812 37.3659L59.9942 30.5369C60.0374 30.1738 59.8407 29.8243 59.5077 29.673C59.45 29.6468 58.2062 29.0847 56.3585 28.4874L56.9716 22.9718C56.998 22.7344 56.922 22.4969 56.7627 22.319C56.6033 22.1408 56.3758 22.0391 56.1369 22.0391C55.4722 22.0391 54.8056 22.078 54.1448 22.1553L54.455 17.901C54.472 17.6683 54.3913 17.4389 54.2324 17.268C54.0735 17.0972 53.8507 17 53.6173 17C47.4011 17 42.0788 21.4959 41.0538 27.6422C40.171 32.9815 40.1799 32.8146 40.1799 32.957C40.1799 33.8832 39.4264 34.6367 38.5002 34.6367C37.574 34.6367 36.8205 33.8832 36.8205 32.957C36.8205 32.7805 36.763 32.6005 35.9466 27.6421C34.9241 21.5106 29.6142 17 23.383 17C23.1497 17 22.9268 17.0971 22.7679 17.2679C22.609 17.4388 22.5284 17.6682 22.5454 17.9009L22.8555 22.1553C22.1947 22.078 21.5281 22.0391 20.8635 22.0391C20.6246 22.0391 20.3971 22.1408 20.2376 22.3188C20.0783 22.4968 20.0024 22.7342 20.0288 22.9716L20.6419 28.4872C18.7942 29.0847 17.5504 29.6466 17.4926 29.6729C17.1596 29.8241 16.9629 30.1736 17.0062 30.5367L19.5257 51.7008ZM55.1953 23.7475L54.7227 28.0002C52.469 27.3881 50.406 27.0781 48.5783 27.0781C47.6552 27.0781 46.8112 27.2274 46.0447 27.4766C48.5955 25.2812 51.7881 23.9558 55.1953 23.7475V23.7475ZM42.7106 27.9184C43.5533 22.8657 47.6867 19.1207 52.7114 18.716L52.4397 22.4427C48.6475 23.2816 45.1229 25.4093 42.5827 28.6865L42.7106 27.9184ZM38.5002 36.3164C39.1118 36.3164 39.6854 36.1513 40.1799 35.8644V56.6405C40.1799 57.5667 39.4264 58.3202 38.5002 58.3202C37.574 58.3202 36.8205 57.5667 36.8205 56.6405V35.8644C37.3151 36.1513 37.8885 36.3164 38.5002 36.3164V36.3164ZM34.2897 27.9183L34.4177 28.6864C31.8751 25.406 28.3471 23.2803 24.5607 22.4426L24.289 18.716C29.3137 19.1207 33.4472 22.8657 34.2897 27.9183V27.9183ZM30.9558 27.4767C30.1893 27.2275 29.3451 27.0781 28.4221 27.0781C26.5944 27.0781 24.5314 27.3881 22.2778 28.0002L21.8051 23.7475C25.1988 23.955 28.3947 25.2724 30.9558 27.4767V27.4767ZM28.4221 28.7578C32.3998 28.7578 34.6827 32.3685 35.1408 33.171V54.537C33.7892 53.2919 31.5708 51.6369 28.6551 50.7946C26.5515 50.1872 23.2597 50.3922 21.0927 50.6549L18.7485 30.9637C21.6152 29.7909 25.3307 28.7578 28.4221 28.7578V28.7578Z" fill="white"/>
<path d="M57.9004 41.8595C58.3642 41.8595 58.7402 41.4835 58.7402 41.0196C58.7402 40.5558 58.3642 40.1798 57.9004 40.1798C57.4366 40.1798 57.0605 40.5558 57.0605 41.0196C57.0605 41.4835 57.4366 41.8595 57.9004 41.8595Z" fill="white"/>
</g>
<defs>
<clipPath id="clip0">
<rect width="43" height="43" fill="white" transform="translate(17 17)"/>
</clipPath>
</defs>
</svg>
