<svg width="18" height="18" viewBox="0 0 18 18" fill="none" xmlns="http://www.w3.org/2000/svg">
<path d="M16.3927 14.4615V1.60715L15.9023 1.64827C13.9352 1.81087 12.0059 2.28108 10.1847 3.04196L9.32129 3.40043V16.2039L9.95002 15.9426C11.8346 15.1585 13.8301 14.6733 15.8643 14.5045L16.3927 14.4615Z" fill="white"/>
<path d="M17.9999 3.50746H17.0356V14.7575C17.0363 14.9251 16.9077 15.0651 16.7406 15.0789L15.9174 15.1464C15.6798 15.166 15.4428 15.1903 15.2067 15.2194C15.1301 15.2286 15.054 15.2409 14.9779 15.2515C14.8188 15.2727 14.6599 15.2942 14.5016 15.3193C14.4093 15.3341 14.3176 15.3514 14.2257 15.3675C14.0839 15.3923 13.9419 15.417 13.8005 15.4449C13.704 15.4642 13.6076 15.4859 13.5092 15.5067C13.3745 15.5353 13.2399 15.5645 13.1061 15.5963C13.0059 15.6202 12.9059 15.6455 12.8062 15.6709C12.6761 15.7031 12.5466 15.7378 12.4173 15.7739C12.3167 15.8015 12.2161 15.8307 12.1158 15.8602C11.9873 15.8982 11.8606 15.9368 11.7336 15.9773C11.6343 16.0094 11.5348 16.0416 11.4358 16.0736C11.3086 16.1165 11.1821 16.1607 11.0561 16.2064C10.9597 16.2414 10.8632 16.2766 10.7646 16.3134C10.7205 16.3302 10.6768 16.3481 10.6328 16.3652H17.9999V3.50746Z" fill="white"/>
<path d="M2.09739 1.64827L1.60693 1.60715V14.4624L2.17744 14.5109C4.21038 14.6809 6.20409 15.169 8.08557 15.9573L8.67836 16.2039V3.40043L7.81594 3.04228C5.99456 2.28124 4.06489 1.81087 2.09739 1.64827Z" fill="white"/>
<path d="M0 3.50746V16.3646H7.3723C7.33275 16.3491 7.2932 16.3324 7.25333 16.3177C7.16136 16.2827 7.0686 16.2492 6.97601 16.2155C6.84542 16.1681 6.715 16.122 6.58348 16.0779C6.48837 16.0457 6.39294 16.0145 6.29736 15.984C6.16694 15.9412 6.03605 15.9008 5.90499 15.8632C5.80847 15.8349 5.71211 15.8065 5.61574 15.7795C5.48359 15.7429 5.35113 15.7083 5.21835 15.6742C5.12198 15.6494 5.02546 15.6246 4.9269 15.6015C4.79224 15.5694 4.65679 15.5398 4.5215 15.5108C4.42514 15.4899 4.32861 15.4687 4.23225 15.4494C4.09209 15.4218 3.95131 15.397 3.81053 15.3724C3.71824 15.3562 3.62596 15.3402 3.53352 15.3237C3.37814 15.2991 3.22229 15.2782 3.06644 15.2572C2.98765 15.2467 2.90949 15.2341 2.83086 15.2252C2.59513 15.1966 2.35939 15.1723 2.12366 15.1522L1.25841 15.0789C1.09157 15.0646 0.963658 14.9248 0.964286 14.7575V3.50746H0Z" fill="white"/>
</svg>
