<svg width="20" height="20" viewBox="0 0 20 20" fill="none" xmlns="http://www.w3.org/2000/svg">
<g clip-path="url(#clip0)">
<path d="M2.16667 17.3333H13.8333C14.7525 17.3333 15.5 16.5858 15.5 15.6667V4.00001C15.5 3.08084 14.7525 2.33334 13.8333 2.33334H12.1667V0.666672H10.5V2.33334H5.5V0.666672H3.83333V2.33334H2.16667C1.2475 2.33334 0.5 3.08084 0.5 4.00001V15.6667C0.5 16.5858 1.2475 17.3333 2.16667 17.3333ZM7.16667 14.345L4.0775 11.2558L5.25583 10.0775L7.16667 11.9883L10.7442 8.41084L11.9225 9.58917L7.16667 14.345ZM2.16667 4.83334H13.8333V6.5H2.16667V4.83334Z" fill="white"/>
</g>
<defs>
<clipPath id="clip0">
<rect width="20" height="20" fill="white"/>
</clipPath>
</defs>
</svg>
