<svg width="14" height="14" viewBox="0 0 14 14" fill="none" xmlns="http://www.w3.org/2000/svg">
<g clip-path="url(#clip0)">
<path d="M13.6856 11.0641L11.5236 8.90183C11.0929 8.47291 10.3798 8.48594 9.93411 8.93175L8.84484 10.0208C8.77603 9.98285 8.7048 9.94323 8.6299 9.9012C7.94204 9.52007 7.00059 8.99767 6.00991 8.00627C5.01629 7.01277 4.49342 6.06987 4.11112 5.38157C4.07077 5.30865 4.03212 5.23834 3.99395 5.17157L4.72501 4.4416L5.08442 4.08174C5.53076 3.63529 5.54306 2.92233 5.11342 2.49217L2.95134 0.329609C2.5217 -0.0999508 1.80822 -0.0869192 1.36189 0.359534L0.752543 0.972381L0.769194 0.988912C0.564872 1.24962 0.394134 1.55032 0.267076 1.87458C0.149952 2.18323 0.0770315 2.47777 0.0436883 2.77291C-0.2418 5.13968 0.839742 7.30272 3.77491 10.2379C7.8322 14.2949 11.1018 13.9885 11.2429 13.9735C11.5501 13.9368 11.8445 13.8634 12.1437 13.7472C12.4652 13.6216 12.7657 13.4511 13.0262 13.2472L13.0395 13.259L13.6568 12.6546C14.1023 12.2082 14.1151 11.495 13.6856 11.0641Z" fill="#72A92C"/>
</g>
<defs>
<clipPath id="clip0">
<rect width="14" height="14" fill="white"/>
</clipPath>
</defs>
</svg>
