<svg width="74" height="74" viewBox="0 0 74 74" fill="none" xmlns="http://www.w3.org/2000/svg">
<rect width="74" height="74" rx="6" fill="#72A92C"/>
<path d="M48.9407 51.8479C47.6113 51.2134 45.8946 50.7006 43.9137 50.3394C44.4918 49.7407 45.0829 49.1004 45.6754 48.4208C48.0421 45.7062 49.9305 42.9326 51.2882 40.1771C53.0047 36.6936 53.875 33.2276 53.875 29.875C53.875 20.5701 46.3049 13 37 13C27.6951 13 20.125 20.5701 20.125 29.875C20.125 33.2276 20.9953 36.6936 22.7118 40.1771C24.0695 42.9326 25.9579 45.7062 28.3246 48.4208C28.9171 49.1005 29.5082 49.7407 30.0863 50.3394C28.1053 50.7006 26.3887 51.2135 25.0593 51.8479C22.5308 53.0547 22 54.432 22 55.375C22 56.569 22.8258 58.2676 26.7598 59.5789C29.509 60.4953 33.1457 61 37 61C40.8543 61 44.491 60.4953 47.2402 59.5789C51.1742 58.2676 52 56.569 52 55.375C52 54.432 51.4693 53.0547 48.9407 51.8479V51.8479ZM22 29.875C22 21.6039 28.729 14.875 37 14.875C45.2711 14.875 52 21.6039 52 29.875C52 36.8355 47.8071 43.1148 44.2899 47.1567C41.2684 50.6288 38.2102 53.0946 37 54.0192C35.7894 53.0943 32.7313 50.6285 29.7101 47.1567C26.1928 43.1148 22 36.8355 22 29.875V29.875ZM46.6472 57.8001C44.0842 58.6545 40.6581 59.125 37 59.125C33.3419 59.125 29.9158 58.6545 27.3527 57.8001C24.7858 56.9445 23.875 55.959 23.875 55.375C23.875 54.4011 26.3182 52.7238 31.7344 51.9743C32.5366 52.7367 33.2836 53.4003 33.9362 53.9559C32.9417 54.2995 32.3125 54.8075 32.3125 55.375C32.3125 56.4109 34.4116 57.25 37 57.25C39.5884 57.25 41.6875 56.4109 41.6875 55.375C41.6875 54.8075 41.0582 54.2995 40.0637 53.9559C40.7164 53.4003 41.4633 52.7367 42.2656 51.9743C47.6819 52.7238 50.125 54.4011 50.125 55.375C50.125 55.959 49.2141 56.9445 46.6472 57.8001Z" fill="white"/>
<path d="M46.1954 39.2305C46.2248 39.2073 46.2536 39.1829 46.2808 39.1558C46.308 39.1286 46.3324 39.0998 46.3556 39.0703C48.6854 36.7004 50.125 33.4529 50.125 29.875C50.125 26.2971 48.6854 23.0496 46.3556 20.6797C46.3324 20.6503 46.308 20.6214 46.2808 20.5942C46.2536 20.567 46.2249 20.5426 46.1955 20.5195C43.8255 18.1897 40.578 16.75 37 16.75C33.422 16.75 30.1745 18.1896 27.8046 20.5194C27.7751 20.5426 27.7464 20.567 27.7192 20.5942C27.692 20.6214 27.6675 20.6502 27.6444 20.6797C25.3146 23.0496 23.875 26.2971 23.875 29.875C23.875 33.4529 25.3146 36.7004 27.6444 39.0703C27.6676 39.0998 27.692 39.1286 27.7192 39.1558C27.7464 39.183 27.7751 39.2074 27.8046 39.2305C30.1745 41.5603 33.422 43 37 43C40.578 43 43.8255 41.5603 46.1954 39.2305V39.2305ZM30.3709 36.5042C30.0048 36.1383 29.4112 36.1382 29.0451 36.5042L28.4139 37.1353C26.9429 35.3984 25.9883 33.2112 25.7895 30.8125H26.6875C27.2053 30.8125 27.625 30.3927 27.625 29.875C27.625 29.3573 27.2053 28.9375 26.6875 28.9375H25.7894C25.9882 26.5388 26.9428 24.3516 28.4138 22.6147L29.045 23.2458C29.2281 23.4288 29.468 23.5204 29.7079 23.5204C29.9478 23.5204 30.1878 23.4288 30.3708 23.2458C30.7369 22.8798 30.7369 22.2861 30.3708 21.9199L29.7397 21.2888C31.4766 19.8178 33.6638 18.8632 36.0625 18.6644V19.5625C36.0625 20.0802 36.4822 20.5 37 20.5C37.5177 20.5 37.9375 20.0802 37.9375 19.5625V18.6644C40.3362 18.8632 42.5234 19.8178 44.2603 21.2888L43.6292 21.9199C43.2631 22.286 43.2631 22.8797 43.6292 23.2458C43.8122 23.4288 44.0522 23.5204 44.2921 23.5204C44.532 23.5204 44.7719 23.4288 44.955 23.2458L45.5861 22.6147C47.0571 24.3517 48.0117 26.5389 48.2105 28.9375H47.3125C46.7948 28.9375 46.375 29.3573 46.375 29.875C46.375 30.3927 46.7948 30.8125 47.3125 30.8125H48.2106C48.0118 33.2111 47.0572 35.3984 45.5862 37.1353L44.9551 36.5042C44.5889 36.1382 43.9954 36.1382 43.6292 36.5042C43.2631 36.8703 43.2631 37.4639 43.6292 37.8301L44.2603 38.4612C42.5233 39.9322 40.3361 40.8868 37.9375 41.0856V40.1875C37.9375 39.6698 37.5177 39.25 37 39.25C36.4822 39.25 36.0625 39.6698 36.0625 40.1875V41.0856C33.6638 40.8868 31.4766 39.9322 29.7397 38.4611L30.3708 37.83C30.7369 37.4639 30.737 36.8703 30.3709 36.5042V36.5042Z" fill="white"/>
<path d="M37 32.6875C37.4337 32.6875 37.8446 32.5887 38.2118 32.4126L40.0871 34.2879C40.2702 34.4709 40.51 34.5625 40.75 34.5625C40.99 34.5625 41.2298 34.4709 41.4129 34.2879C41.779 33.9218 41.779 33.3282 41.4129 32.962L39.5376 31.0867C39.7137 30.7195 39.8125 30.3086 39.8125 29.8749C39.8125 28.6528 39.0287 27.6107 37.9375 27.2237V23.3125C37.9375 22.7948 37.5177 22.375 37 22.375C36.4822 22.375 36.0625 22.7948 36.0625 23.3125V27.2237C34.9713 27.6107 34.1875 28.6529 34.1875 29.875C34.1875 31.4258 35.4492 32.6875 37 32.6875V32.6875ZM37 28.9375C37.5169 28.9375 37.9375 29.3581 37.9375 29.875C37.9375 30.3919 37.5169 30.8125 37 30.8125C36.4831 30.8125 36.0625 30.3919 36.0625 29.875C36.0625 29.3581 36.4831 28.9375 37 28.9375Z" fill="white"/>
</svg>
