<svg width="74" height="74" viewBox="0 0 74 74" fill="none" xmlns="http://www.w3.org/2000/svg">
<rect width="74" height="74" rx="6" fill="#FF8901"/>
<g clip-path="url(#clip0)">
<path d="M59.9346 21.0944L37.5426 13.0944C37.189 12.9696 36.8034 12.9696 36.4498 13.0944L14.0634 21.0944C13.4289 21.3231 13.006 21.9252 13.006 22.5996C13.006 23.2741 13.4289 23.8761 14.0634 24.1048L24.9994 28.012V33C24.9994 36.1104 35.7714 36.2 36.9994 36.2C38.2274 36.2 48.9994 36.1104 48.9994 33V28.012L51.3994 27.16V29C51.3994 29.8837 52.1158 30.6 52.9994 30.6H54.5994C55.4831 30.6 56.1994 29.8837 56.1994 29V26.6C56.197 26.2296 56.1077 25.8649 55.9386 25.5352L59.9386 24.1048C60.5731 23.8761 60.9961 23.2741 60.9961 22.5996C60.9961 21.9252 60.5731 21.3231 59.9386 21.0944H59.9346ZM47.3994 31.24C44.3522 29.8528 37.9314 29.8 36.9994 29.8C36.0674 29.8 29.6466 29.8528 26.5994 31.24V24.2704C27.0794 23.6544 30.8522 22.6 36.9994 22.6C43.1466 22.6 46.9194 23.6544 47.3994 24.2704V31.24ZM36.9994 34.6C31.0794 34.6 27.3618 33.6224 26.6666 33C27.3618 32.3776 31.081 31.4 36.9994 31.4C42.9178 31.4 46.637 32.3776 47.3322 33C46.637 33.6224 42.9194 34.6 36.9994 34.6V34.6ZM51.7746 25.324L48.9994 26.3136V24.2C48.9994 21.0896 38.2274 21 36.9994 21C35.7714 21 24.9994 21.0896 24.9994 24.2V26.3128L14.5994 22.6L37.0106 14.6L52.9994 20.3136V24.3472C52.4936 24.527 52.0624 24.8708 51.7746 25.324ZM54.5994 29H52.9994V26.6C52.9994 26.1582 53.3576 25.8 53.7994 25.8C54.2412 25.8 54.5994 26.1582 54.5994 26.6V29ZM54.5994 24.3152V20.8856L59.3994 22.6L54.5994 24.3152Z" fill="white"/>
<path d="M58.6 37.8C58.552 37.7998 58.504 37.8041 58.4568 37.8128C51.3587 38.9163 44.1833 39.4471 37 39.4C29.8167 39.4471 22.6413 38.9163 15.5432 37.8128C15.4959 37.8047 15.448 37.8004 15.4 37.8C14.84 37.8 13 38.4344 13 46.6C13 54.7656 14.84 55.4 15.4 55.4C15.448 55.3989 15.4959 55.3941 15.5432 55.3856C20.9974 54.5216 26.5027 54.0197 32.0232 53.8832L30.4616 57.6288C30.2217 58.2285 30.3675 58.9138 30.8309 59.3638C31.2943 59.8139 31.9835 59.9397 32.576 59.6824L33.188 59.4208L33.4528 60.0296C33.7029 60.6199 34.2829 61.0024 34.924 61H34.944C35.5899 60.9949 36.169 60.6007 36.4104 60.0016L37.8 56.6752L39.1848 59.9888C39.4241 60.5935 40.0057 60.9932 40.656 61H40.68C41.3168 61.0026 41.8936 60.6247 42.1456 60.04L42.4128 59.4264L43.0152 59.6848C43.6103 59.9474 44.3052 59.8223 44.7713 59.3686C45.2374 58.9148 45.3811 58.2234 45.1344 57.6216L43.6032 53.9496C48.5805 54.1258 53.5423 54.6067 58.4608 55.3896C58.5068 55.3972 58.5534 55.4007 58.6 55.4C59.16 55.4 61 54.7656 61 46.6C61 38.4344 59.16 37.8 58.6 37.8V37.8ZM39.56 40.976C39.8922 42.1975 40.0857 43.4527 40.1368 44.7176C38.3229 43.8741 36.1954 44.0718 34.568 45.2352C34.5271 43.7986 34.343 42.3696 34.0184 40.9696C34.9875 40.9898 35.9813 41 37 41C37.8744 41 38.7232 40.9904 39.56 40.976V40.976ZM37.8 53.8C35.5909 53.8 33.8 52.0091 33.8 49.8C33.8 47.5908 35.5909 45.8 37.8 45.8C40.0091 45.8 41.8 47.5908 41.8 49.8C41.7974 52.008 40.008 53.7973 37.8 53.8V53.8ZM15.4 39.8C16.013 42.0124 16.2828 44.3057 16.2 46.6C16.2828 48.8942 16.013 51.1876 15.4 53.4C14.787 51.1876 14.5172 48.8942 14.6 46.6C14.5172 44.3057 14.787 42.0124 15.4 39.8ZM17.016 53.536C17.4536 52.2672 17.8 50.144 17.8 46.6C17.8 43.056 17.4536 40.9328 17.0152 39.6624C22.0989 40.3645 27.2172 40.7872 32.3472 40.9288C32.827 42.7797 33.0467 44.6884 33 46.6C33 46.716 33 46.8264 32.9952 46.9376C32.0352 48.5308 31.9384 50.4994 32.7376 52.1792L32.7024 52.264C27.4538 52.3926 22.2166 52.8178 17.016 53.5376V53.536ZM34.9256 59.4L34.3416 58.056C34.166 57.6524 33.6973 57.4665 33.2928 57.64L31.9464 58.2352L33.8224 53.7376C34.5926 54.518 35.5752 55.0549 36.648 55.2816L34.9256 59.4ZM42.3072 57.64C41.9027 57.4665 41.434 57.6524 41.2584 58.056L40.6664 59.3864L38.9512 55.28C40.0249 55.0532 41.0082 54.516 41.7792 53.7352L43.6512 58.2152L42.3072 57.64ZM58.44 53.76C53.3003 52.9689 48.1175 52.4881 42.92 52.32L42.8632 52.1824C43.8693 50.0623 43.438 47.539 41.7848 45.8736C41.7786 44.2145 41.587 42.5613 41.2136 40.9448C46.9822 40.8156 52.7364 40.3127 58.44 39.4392C58.8112 40.0696 59.4 42.5632 59.4 46.6C59.4 50.6368 58.8072 53.1296 58.44 53.76V53.76Z" fill="white"/>
</g>
<defs>
<clipPath id="clip0">
<rect width="48" height="48" fill="white" transform="translate(13 13)"/>
</clipPath>
</defs>
</svg>
