<svg width="74" height="74" viewBox="0 0 74 74" fill="none" xmlns="http://www.w3.org/2000/svg">
<rect width="74" height="74" rx="6" fill="#72A92C"/>
<g clip-path="url(#clip0)">
<path d="M58.0625 50.875H56.75V49C56.75 44.986 54.0525 41.5908 50.375 40.5306V22.1564C50.3743 22.1556 50.3735 22.1553 50.3728 22.1549C50.3724 21.9114 50.2794 21.6722 50.1003 21.4935L41.8815 13.2747C41.7119 13.1047 41.4775 13 41.2186 13H16.8125C15.2616 13 14 14.2616 14 15.8125V32.7933C14 33.3108 14.4197 33.7308 14.9375 33.7308C15.4553 33.7308 15.875 33.3108 15.875 32.7933V15.8125C15.875 15.2954 16.2954 14.875 16.8125 14.875H40.2811V20.2814C40.2811 21.8323 41.5427 23.0939 43.0936 23.0939H48.5V40.2058C48.314 40.1941 48.1265 40.1875 47.9375 40.1875C43.0782 40.1875 39.125 44.1407 39.125 49V50.875H37.8125C37.7275 50.875 37.6437 50.8787 37.5602 50.8838C37.5199 50.8787 37.4792 50.875 37.4375 50.875H26.9664C26.4486 50.875 26.0289 51.2947 26.0289 51.8125C26.0289 52.3303 26.4486 52.75 26.9664 52.75H34.4602C34.0896 53.3502 33.875 54.0566 33.875 54.8125V57.0625C33.875 57.8184 34.0896 58.5248 34.4602 59.125H16.8125C16.2954 59.125 15.875 58.7046 15.875 58.1875V41.2308C15.875 40.713 15.4553 40.2933 14.9375 40.2933C14.4197 40.2933 14 40.713 14 41.2308V58.1875C14 59.7384 15.2616 61 16.8125 61H40.0625C40.5803 61 41 60.5803 41 60.0625V49C41 45.1746 44.1121 42.0625 47.9375 42.0625C51.7629 42.0625 54.875 45.1746 54.875 49V59.125H52.625V58.1875C52.625 56.6366 51.3634 55.375 49.8125 55.375C48.2616 55.375 47 56.6366 47 58.1875V60.0625C47 60.5803 47.4197 61 47.9375 61H58.0625C60.2338 61 62 59.2338 62 57.0625V54.8125C62 52.6412 60.2338 50.875 58.0625 50.875ZM43.0936 21.2189C42.5769 21.2189 42.1561 20.7981 42.1561 20.2814V16.2007L47.1743 21.2189H43.0936ZM37.8125 59.125C36.675 59.125 35.75 58.2 35.75 57.0625V54.8125C35.75 53.675 36.675 52.75 37.8125 52.75H39.125V59.125H37.8125ZM48.875 59.125V58.1875C48.875 57.6704 49.2954 57.25 49.8125 57.25C50.3296 57.25 50.75 57.6704 50.75 58.1875V59.125H48.875ZM60.125 57.0625C60.125 58.2 59.2 59.125 58.0625 59.125H56.75V52.75H58.0625C59.2 52.75 60.125 53.675 60.125 54.8125V57.0625Z" fill="white"/>
<path d="M48.6003 52.4753C48.7747 52.301 48.875 52.059 48.875 51.8125C48.875 51.566 48.7747 51.324 48.6003 51.1497C48.426 50.9753 48.184 50.875 47.9375 50.875C47.691 50.875 47.449 50.9753 47.2747 51.1497C47.1003 51.324 47 51.566 47 51.8125C47 52.059 47.1003 52.301 47.2747 52.4753C47.449 52.6497 47.691 52.75 47.9375 52.75C48.184 52.75 48.426 52.6497 48.6003 52.4753Z" fill="white"/>
<path d="M52.3503 52.4753C52.5247 52.301 52.625 52.059 52.625 51.8125C52.625 51.566 52.5247 51.324 52.3503 51.1497C52.176 50.9753 51.934 50.875 51.6875 50.875C51.441 50.875 51.199 50.9753 51.0247 51.1497C50.8503 51.324 50.75 51.566 50.75 51.8125C50.75 52.059 50.8503 52.301 51.0247 52.4753C51.199 52.6497 51.441 52.75 51.6875 52.75C51.934 52.75 52.176 52.6497 52.3503 52.4753Z" fill="white"/>
<path d="M44.1875 50.875C43.941 50.875 43.699 50.9753 43.5247 51.1497C43.3503 51.324 43.25 51.566 43.25 51.8125C43.25 52.059 43.3503 52.301 43.5247 52.4753C43.699 52.6497 43.941 52.75 44.1875 52.75C44.434 52.75 44.676 52.6497 44.8503 52.4753C45.0247 52.301 45.125 52.059 45.125 51.8125C45.125 51.566 45.0247 51.324 44.8503 51.1497C44.676 50.9753 44.434 50.875 44.1875 50.875Z" fill="white"/>
<path d="M27.094 22.75H35.5128C36.0306 22.75 36.4503 22.3303 36.4503 21.8125C36.4503 21.2947 36.0306 20.875 35.5128 20.875H27.094C26.5762 20.875 26.1565 21.2947 26.1565 21.8125C26.1565 22.3303 26.5762 22.75 27.094 22.75Z" fill="white"/>
<path d="M20.1875 22.75H22.5254C23.0432 22.75 23.4629 22.3303 23.4629 21.8125C23.4629 21.2947 23.0432 20.875 22.5254 20.875H20.1875C19.6697 20.875 19.25 21.2947 19.25 21.8125C19.25 22.3303 19.6697 22.75 20.1875 22.75Z" fill="white"/>
<path d="M26.9662 28.75H44.0594C44.5773 28.75 44.9969 28.3303 44.9969 27.8125C44.9969 27.2947 44.5773 26.875 44.0594 26.875H26.9662C26.4484 26.875 26.0287 27.2947 26.0287 27.8125C26.0287 28.3303 26.4484 28.75 26.9662 28.75V28.75Z" fill="white"/>
<path d="M20.1875 28.75H22.5254C23.0432 28.75 23.4629 28.3303 23.4629 27.8125C23.4629 27.2947 23.0432 26.875 22.5254 26.875H20.1875C19.6697 26.875 19.25 27.2947 19.25 27.8125C19.25 28.3303 19.6697 28.75 20.1875 28.75Z" fill="white"/>
<path d="M27.094 32.875C26.5762 32.875 26.1565 33.2947 26.1565 33.8125C26.1565 34.3303 26.5762 34.75 27.094 34.75H44.1873C44.7051 34.75 45.1248 34.3303 45.1248 33.8125C45.1248 33.2947 44.7051 32.875 44.1873 32.875H27.094Z" fill="white"/>
<path d="M20.1875 34.75H22.5254C23.0432 34.75 23.4629 34.3303 23.4629 33.8125C23.4629 33.2947 23.0432 32.875 22.5254 32.875H20.1875C19.6697 32.875 19.25 33.2947 19.25 33.8125C19.25 34.3303 19.6697 34.75 20.1875 34.75Z" fill="white"/>
<path d="M26.9662 40.75H38.3433C38.8611 40.75 39.2808 40.3303 39.2808 39.8125C39.2808 39.2947 38.8611 38.875 38.3433 38.875H26.9662C26.4484 38.875 26.0287 39.2947 26.0287 39.8125C26.0287 40.3303 26.4484 40.75 26.9662 40.75Z" fill="white"/>
<path d="M20.1875 40.75H22.5254C23.0432 40.75 23.4629 40.3303 23.4629 39.8125C23.4629 39.2947 23.0432 38.875 22.5254 38.875H20.1875C19.6697 38.875 19.25 39.2947 19.25 39.8125C19.25 40.3303 19.6697 40.75 20.1875 40.75Z" fill="white"/>
<path d="M27.094 44.875C26.5762 44.875 26.1565 45.2947 26.1565 45.8125C26.1565 46.3303 26.5762 46.75 27.094 46.75H34.8123C35.3301 46.75 35.7498 46.3303 35.7498 45.8125C35.7498 45.2947 35.3301 44.875 34.8123 44.875H27.094Z" fill="white"/>
<path d="M20.1875 46.75H22.5254C23.0432 46.75 23.4629 46.3303 23.4629 45.8125C23.4629 45.2947 23.0432 44.875 22.5254 44.875H20.1875C19.6697 44.875 19.25 45.2947 19.25 45.8125C19.25 46.3303 19.6697 46.75 20.1875 46.75Z" fill="white"/>
<path d="M20.1875 52.75H22.5254C23.0432 52.75 23.4629 52.3303 23.4629 51.8125C23.4629 51.2947 23.0432 50.875 22.5254 50.875H20.1875C19.6697 50.875 19.25 51.2947 19.25 51.8125C19.25 52.3303 19.6697 52.75 20.1875 52.75Z" fill="white"/>
<path d="M14.9375 37.9495C15.184 37.9495 15.426 37.8492 15.6003 37.6749C15.7747 37.5006 15.875 37.2589 15.875 37.012C15.875 36.7645 15.7747 36.5239 15.6003 36.3492C15.426 36.1741 15.184 36.0745 14.9375 36.0745C14.691 36.0745 14.449 36.1741 14.2747 36.3492C14.1003 36.5239 14 36.7645 14 37.012C14 37.2589 14.1003 37.5006 14.2747 37.6749C14.449 37.8492 14.691 37.9495 14.9375 37.9495Z" fill="white"/>
</g>
<defs>
<clipPath id="clip0">
<rect width="48" height="48" fill="white" transform="translate(14 13)"/>
</clipPath>
</defs>
</svg>
