<svg width="74" height="74" viewBox="0 0 74 74" fill="none" xmlns="http://www.w3.org/2000/svg">
<rect width="74" height="74" rx="6" fill="#FF8901"/>
<g clip-path="url(#clip0)">
<path d="M60.9816 36.3648C60.5398 26.7933 52.4224 19.3922 42.8509 19.834C33.898 20.2473 26.7334 27.4119 26.3202 36.3648H23.8635L21.5435 32.6232C21.3976 32.388 21.1404 32.2449 20.8635 32.2449H13.8052C13.3634 32.2448 13.0052 32.6029 13.0051 33.0447C13.0051 33.1937 13.0467 33.3398 13.1252 33.4664L15.4347 37.1895L13.1252 40.9135C12.8924 41.2889 13.008 41.782 13.3835 42.0149C13.5101 42.0934 13.6562 42.135 13.8052 42.135H20.8634C21.1403 42.135 21.3975 41.9919 21.5434 41.7566L23.8946 37.9647H26.3201C26.7619 47.5362 34.8793 54.9373 44.4508 54.4954C54.0223 54.0536 61.4234 45.9363 60.9816 36.3648ZM20.4178 40.5351H15.2404L16.8035 38.0151H21.9786L20.4178 40.5351ZM16.8059 36.3648L15.2404 33.8448H20.4178L21.981 36.3648H16.8059ZM43.6911 52.9156C35.2953 52.9265 28.3669 46.3497 27.9409 37.9647H31.2088C31.6506 44.8429 37.5846 50.0606 44.4628 49.6188C51.3409 49.1769 56.5587 43.2429 56.1168 36.3648C55.6749 29.4866 49.741 24.2688 42.8628 24.7107C36.6007 25.113 31.611 30.1026 31.2088 36.3648H27.9409C28.3693 27.9974 35.2717 21.4288 43.6501 21.4155C52.3486 21.4042 59.4093 28.4465 59.4206 37.145C59.4319 45.8435 52.3896 52.9043 43.6911 52.9156ZM43.6493 36.3648H42.8301C43.2719 35.9101 43.9987 35.8996 44.4534 36.3414C44.9081 36.7832 44.9186 37.5099 44.4768 37.9647C44.035 38.4195 43.3082 38.4299 42.8534 37.988C42.8455 37.9803 42.8377 37.9725 42.8301 37.9647H43.6493C44.0911 37.9647 44.4493 37.6065 44.4493 37.1647C44.4493 36.723 44.0911 36.3648 43.6493 36.3648ZM44.4662 39.7929C45.9177 39.3511 46.7361 37.8162 46.2942 36.3649C45.8525 34.9134 44.3176 34.0949 42.8662 34.5368C41.9902 34.8034 41.3048 35.489 41.0382 36.3649H37.6942C38.136 33.0728 41.163 30.7622 44.4551 31.204C47.7472 31.6458 50.0578 34.6727 49.616 37.9648C49.1742 41.257 46.1472 43.5675 42.8551 43.1257C40.1684 42.7651 38.0548 40.6517 37.6942 37.9648H41.0382C41.48 39.4162 43.0148 40.2347 44.4662 39.7929ZM44.4504 44.7369C48.6323 44.2951 51.6643 40.5468 51.2225 36.3648C50.7807 32.1829 47.0324 29.1508 42.8504 29.5926C39.2783 29.97 36.4557 32.7925 36.0783 36.3648H32.8087C33.2505 30.3723 38.4666 25.8726 44.459 26.3145C50.4513 26.7564 54.9511 31.9724 54.5093 37.9647C54.0674 43.9571 48.8514 48.4569 42.859 48.0151C37.4811 47.6186 33.2052 43.3426 32.8087 37.9647H36.0783C36.5201 42.1467 40.2684 45.1787 44.4504 44.7369Z" fill="white"/>
<path d="M27.3994 13.0005H20.9995V14.6005H27.3994V13.0005Z" fill="white"/>
<path d="M33.8002 18.6004H27.4004V20.2003H33.8002V18.6004Z" fill="white"/>
<path d="M19.4006 13.0005H17.8007V14.6005H19.4006V13.0005Z" fill="white"/>
<path d="M22.6003 28.2002H16.2004V29.8001H22.6003V28.2002Z" fill="white"/>
<path d="M14.6 28.2002H13V29.8001H14.6V28.2002Z" fill="white"/>
<path d="M24.1992 45.7997H19.3993V47.3997H24.1992V45.7997Z" fill="white"/>
<path d="M17.8004 45.7997H16.2004V47.3997H17.8004V45.7997Z" fill="white"/>
<path d="M30.599 52.9996H28.999V54.5996H30.599V52.9996Z" fill="white"/>
<path d="M22.6003 59.3994H16.2004V60.9994H22.6003V59.3994Z" fill="white"/>
<path d="M14.6 59.3994H13V60.9994H14.6V59.3994Z" fill="white"/>
</g>
<defs>
<clipPath id="clip0">
<rect width="48" height="48" fill="white" transform="translate(13 13)"/>
</clipPath>
</defs>
</svg>
