<svg width="74" height="74" viewBox="0 0 74 74" fill="none" xmlns="http://www.w3.org/2000/svg">
<rect width="74" height="74" rx="6" fill="#131D3B"/>
<path d="M25.25 38.25V37.5C25.8467 37.5 26.419 37.2629 26.841 36.841C27.2629 36.419 27.5 35.8467 27.5 35.25C27.5 34.6533 27.2629 34.081 26.841 33.659C26.419 33.237 25.8467 33 25.25 33H23.75C23.5511 33 23.3603 32.921 23.2197 32.7803C23.079 32.6397 23 32.4489 23 32.25C23 32.0511 23.079 31.8603 23.2197 31.7197C23.3603 31.579 23.5511 31.5 23.75 31.5H25.25C25.4489 31.5 25.6397 31.579 25.7803 31.7197C25.921 31.8603 26 32.0511 26 32.25C26 32.4489 26.079 32.6397 26.2197 32.7803C26.3603 32.921 26.5511 33 26.75 33C26.9489 33 27.1397 32.921 27.2803 32.7803C27.421 32.6397 27.5 32.4489 27.5 32.25C27.5 31.6533 27.2629 31.081 26.841 30.659C26.419 30.237 25.8467 30 25.25 30V29.25C25.25 29.0511 25.171 28.8603 25.0303 28.7197C24.8897 28.579 24.6989 28.5 24.5 28.5C24.3011 28.5 24.1103 28.579 23.9697 28.7197C23.829 28.8603 23.75 29.0511 23.75 29.25V30C23.1533 30 22.581 30.237 22.159 30.659C21.7371 31.081 21.5 31.6533 21.5 32.25C21.5 32.8467 21.7371 33.419 22.159 33.841C22.581 34.2629 23.1533 34.5 23.75 34.5H25.25C25.4489 34.5 25.6397 34.579 25.7803 34.7197C25.921 34.8603 26 35.0511 26 35.25C26 35.4489 25.921 35.6397 25.7803 35.7803C25.6397 35.921 25.4489 36 25.25 36H23.75C23.5511 36 23.3603 35.921 23.2197 35.7803C23.079 35.6397 23 35.4489 23 35.25C23 35.0511 22.921 34.8603 22.7803 34.7197C22.6397 34.579 22.4489 34.5 22.25 34.5C22.0511 34.5 21.8603 34.579 21.7197 34.7197C21.579 34.8603 21.5 35.0511 21.5 35.25C21.5 35.8467 21.7371 36.419 22.159 36.841C22.581 37.2629 23.1533 37.5 23.75 37.5V38.25C23.75 38.4489 23.829 38.6397 23.9697 38.7803C24.1103 38.921 24.3011 39 24.5 39C24.6989 39 24.8897 38.921 25.0303 38.7803C25.171 38.6397 25.25 38.4489 25.25 38.25Z" fill="white"/>
<path d="M60.0725 33.0825C59.7283 32.591 59.2701 32.1903 58.7372 31.9147C58.2043 31.6391 57.6125 31.4968 57.0125 31.5H54.5V26.25C54.5 25.2554 54.1049 24.3016 53.4017 23.5983C52.6984 22.8951 51.7446 22.5 50.75 22.5H36.995C36.3985 22.4995 35.8266 22.2621 35.405 21.84L32.66 19.095C32.3113 18.7468 31.8972 18.4708 31.4416 18.2829C30.986 18.095 30.4978 17.9989 30.005 18H19.25C18.2554 18 17.3016 18.3951 16.5983 19.0983C15.8951 19.8016 15.5 20.7554 15.5 21.75V54.75C15.5 55.7445 15.8951 56.6984 16.5983 57.4016C17.3016 58.1049 18.2554 58.5 19.25 58.5H50.1275C50.9033 58.5 51.6599 58.2589 52.2928 57.8102C52.9256 57.3614 53.4034 56.7271 53.66 55.995L60.545 36.495C60.7491 35.9305 60.8127 35.3249 60.7304 34.7304C60.6481 34.1358 60.4223 33.5703 60.0725 33.0825V33.0825ZM17 21.75C17.0018 21.1538 17.2394 20.5825 17.661 20.161C18.0825 19.7394 18.6538 19.5018 19.25 19.5H30.005C30.6015 19.5005 31.1734 19.7379 31.595 20.16L34.34 22.905C34.6887 23.2532 35.1028 23.5292 35.5584 23.7171C36.014 23.905 36.5022 24.0011 36.995 24H50.75C51.3462 24.0018 51.9175 24.2394 52.339 24.661C52.7606 25.0825 52.9982 25.6538 53 26.25V31.5H51.5V26.25C51.5 26.0511 51.421 25.8603 51.2803 25.7197C51.1397 25.579 50.9489 25.5 50.75 25.5H19.25C19.0511 25.5 18.8603 25.579 18.7197 25.7197C18.579 25.8603 18.5 26.0511 18.5 26.25V44.7375L17 48.93V21.75ZM50 27V31.5H37.4075C36.6204 31.4991 35.8531 31.7466 35.2148 32.2071C34.5765 32.6676 34.0998 33.3178 33.8525 34.065L32.72 37.4625C32.5719 37.9103 32.2863 38.3 31.9039 38.5761C31.5215 38.8521 31.0617 39.0005 30.59 39H23.195C22.5532 39.003 21.9228 39.1699 21.3636 39.4849C20.8045 39.7999 20.3351 40.2526 20 40.8V27H50ZM59.135 36L52.25 55.5C52.0948 55.9389 51.8074 56.3188 51.4272 56.5874C51.0471 56.8561 50.593 57.0002 50.1275 57H19.25C18.6538 56.9982 18.0825 56.7606 17.661 56.339C17.2394 55.9174 17.0018 55.3462 17 54.75V53.3775L21.0725 41.9925C21.23 41.5558 21.5183 41.1782 21.8981 40.9111C22.2779 40.6441 22.7307 40.5005 23.195 40.5H30.59C31.3771 40.5009 32.1444 40.2534 32.7827 39.7929C33.421 39.3324 33.8977 38.6822 34.145 37.935L35.2775 34.5375C35.4256 34.0897 35.7112 33.7 36.0936 33.4239C36.476 33.1479 36.9358 32.9995 37.4075 33H57.0125C57.3726 32.9998 57.7274 33.086 58.0472 33.2514C58.367 33.4168 58.6425 33.6565 58.8505 33.9505C59.0584 34.2444 59.1928 34.5839 59.2423 34.9406C59.2918 35.2972 59.255 35.6605 59.135 36V36Z" fill="white"/>
<path d="M32 32.25H29.75C29.5511 32.25 29.3603 32.329 29.2197 32.4697C29.079 32.6103 29 32.8011 29 33C29 33.1989 29.079 33.3897 29.2197 33.5303C29.3603 33.671 29.5511 33.75 29.75 33.75H32C32.1989 33.75 32.3897 33.671 32.5303 33.5303C32.671 33.3897 32.75 33.1989 32.75 33C32.75 32.8011 32.671 32.6103 32.5303 32.4697C32.3897 32.329 32.1989 32.25 32 32.25Z" fill="white"/>
<path d="M30.5 36H29.75C29.5511 36 29.3603 36.079 29.2197 36.2197C29.079 36.3603 29 36.5511 29 36.75C29 36.9489 29.079 37.1397 29.2197 37.2803C29.3603 37.421 29.5511 37.5 29.75 37.5H30.5C30.6989 37.5 30.8897 37.421 31.0303 37.2803C31.171 37.1397 31.25 36.9489 31.25 36.75C31.25 36.5511 31.171 36.3603 31.0303 36.2197C30.8897 36.079 30.6989 36 30.5 36V36Z" fill="white"/>
<path d="M47.75 28.5H29.75C29.5511 28.5 29.3603 28.579 29.2197 28.7197C29.079 28.8603 29 29.0511 29 29.25C29 29.4489 29.079 29.6397 29.2197 29.7803C29.3603 29.921 29.5511 30 29.75 30H47.75C47.9489 30 48.1397 29.921 48.2803 29.7803C48.421 29.6397 48.5 29.4489 48.5 29.25C48.5 29.0511 48.421 28.8603 48.2803 28.7197C48.1397 28.579 47.9489 28.5 47.75 28.5Z" fill="white"/>
</svg>
