<svg width="74" height="74" viewBox="0 0 74 74" fill="none" xmlns="http://www.w3.org/2000/svg">
<rect width="74" height="74" rx="6" fill="#131D3B"/>
<g clip-path="url(#clip0)">
<path d="M59.25 36.75C59.25 31.7872 55.2128 27.75 50.25 27.75C45.2872 27.75 41.25 31.7872 41.25 36.75C41.25 41.7128 45.2872 45.75 50.25 45.75C55.2128 45.75 59.25 41.7128 59.25 36.75ZM42.75 36.75C42.75 32.6145 46.1145 29.25 50.25 29.25C54.3855 29.25 57.75 32.6145 57.75 36.75C57.75 40.8855 54.3855 44.25 50.25 44.25C46.1145 44.25 42.75 40.8855 42.75 36.75Z" fill="white"/>
<path d="M53.25 48.3547C58.4167 47.0175 62.25 42.3293 62.25 36.75C62.25 30.1335 56.8665 24.75 50.25 24.75V19.5C50.25 17.4323 48.5677 15.75 46.5 15.75H19.5C17.4323 15.75 15.75 17.4323 15.75 19.5V34.5C15.75 36.5677 17.4323 38.25 19.5 38.25H29.5988L32.0858 41.9805C32.4068 42.4627 32.9438 42.75 33.5228 42.75C34.4753 42.75 35.25 41.9752 35.25 41.0227V38.25H38.3542C38.97 43.1557 42.5542 47.1397 47.25 48.3547V49.5C47.25 49.9028 47.3648 50.2755 47.5508 50.6033C46.9215 51.0023 46.5 51.7012 46.5 52.5V58.5C46.5 60.5677 48.1823 62.25 50.25 62.25C52.3177 62.25 54 60.5677 54 58.5V52.5C54 51.7012 53.5785 51.0023 52.9492 50.6033C53.1352 50.2755 53.25 49.9028 53.25 49.5V48.3547ZM33.75 36.75V41.0227C33.75 41.2245 33.4462 41.316 33.3337 41.1488L30.4012 36.75H19.5C18.2595 36.75 17.25 35.7405 17.25 34.5V19.5C17.25 18.2595 18.2595 17.25 19.5 17.25H46.5C47.7405 17.25 48.75 18.2595 48.75 19.5V24.8542C45.7732 25.2277 43.1385 26.694 41.25 28.8397V24C41.25 22.7595 42.2595 21.75 43.5 21.75C44.7405 21.75 45.75 22.7595 45.75 24H47.25C47.25 21.9323 45.5677 20.25 43.5 20.25C41.4323 20.25 39.75 21.9323 39.75 24V30C39.75 30.2692 39.789 30.5348 39.846 30.7965C38.8365 32.553 38.25 34.5825 38.25 36.75H33.75ZM39.75 36.75C39.75 30.96 44.46 26.25 50.25 26.25C56.04 26.25 60.75 30.96 60.75 36.75C60.75 42.54 56.04 47.25 50.25 47.25C44.46 47.25 39.75 42.54 39.75 36.75ZM50.25 48.75C50.7593 48.75 51.2572 48.708 51.75 48.6458V49.5C51.75 49.9132 51.414 50.25 51 50.25H49.5C49.086 50.25 48.75 49.9132 48.75 49.5V48.6458C49.2428 48.708 49.7407 48.75 50.25 48.75ZM52.5 58.5C52.5 59.7405 51.4905 60.75 50.25 60.75C49.0095 60.75 48 59.7405 48 58.5V52.5C48 52.0868 48.336 51.75 48.75 51.75H49.5H51H51.75C52.164 51.75 52.5 52.0868 52.5 52.5V58.5Z" fill="white"/>
<path d="M36.75 24C36.75 21.9323 35.0677 20.25 33 20.25H29.25V33.75H33C35.0677 33.75 36.75 32.0677 36.75 30C36.75 28.7745 36.159 27.6847 35.2477 27C36.159 26.3153 36.75 25.2255 36.75 24ZM35.25 30C35.25 31.2405 34.2405 32.25 33 32.25H30.75V27.75H33C34.2405 27.75 35.25 28.7595 35.25 30ZM33 26.25H30.75V21.75H33C34.2405 21.75 35.25 22.7595 35.25 24C35.25 25.2405 34.2405 26.25 33 26.25Z" fill="white"/>
<path d="M22.5 20.25C20.4323 20.25 18.75 21.9323 18.75 24V33.75H20.25V29.25H24.75V33.75H26.25V24C26.25 21.9323 24.5677 20.25 22.5 20.25ZM20.25 27.75V24C20.25 22.7595 21.2595 21.75 22.5 21.75C23.7405 21.75 24.75 22.7595 24.75 24V27.75H20.25Z" fill="white"/>
<path d="M54.22 32.4698L48.0002 38.6895L46.2805 36.9698L45.22 38.0303L48.0002 40.8105L55.2805 33.5303L54.22 32.4698Z" fill="white"/>
</g>
<defs>
<clipPath id="clip0">
<rect width="50" height="50" fill="white" transform="translate(12 12)"/>
</clipPath>
</defs>
</svg>
