<svg width="74" height="74" viewBox="0 0 74 74" fill="none" xmlns="http://www.w3.org/2000/svg">
<rect width="74" height="74" rx="6" fill="#72A92C"/>
<path d="M56.4999 44.701V44.6875C56.4995 44.2064 56.3568 43.7361 56.09 43.3358C55.8231 42.9355 55.4439 42.623 54.9999 42.4375V39.25C55.1989 39.25 55.3896 39.171 55.5303 39.0303C55.6709 38.8897 55.7499 38.6989 55.7499 38.5V35.5C55.7499 25.1613 47.3388 16.75 36.9999 16.75C26.6612 16.75 18.2499 25.1613 18.2499 35.5V38.5C18.2499 38.6989 18.329 38.8897 18.4696 39.0303C18.6103 39.171 18.801 39.25 18.9999 39.25V42.4375C18.556 42.623 18.1768 42.9355 17.9099 43.3358C17.643 43.7361 17.5004 44.2064 17.4999 44.6875V44.7011C16.6162 45.041 15.8563 45.6409 15.3207 46.4217C14.7851 47.2025 14.4989 48.1274 14.4999 49.0742V50.4258C14.4989 51.3726 14.7851 52.2975 15.3207 53.0783C15.8564 53.8591 16.6162 54.459 17.4999 54.7989V54.8125C17.5007 55.4587 17.7577 56.0783 18.2147 56.5353C18.6717 56.9922 19.2912 57.2493 19.9374 57.25H24.2499C24.4489 57.25 24.6396 57.171 24.7803 57.0303C24.9209 56.8897 24.9999 56.6989 24.9999 56.5V56.2135L26.3416 55.5427C26.8411 55.2951 27.2613 54.9124 27.5544 54.4381C27.8475 53.9639 28.0018 53.4169 27.9999 52.8594V46.6406C28.0018 46.0831 27.8475 45.5361 27.5544 45.0619C27.2613 44.5876 26.8411 44.2049 26.3416 43.9573L24.9999 43.2865V43C24.9999 42.8011 24.9209 42.6103 24.7803 42.4697C24.6396 42.329 24.4489 42.25 24.2499 42.25H23.4999V39.25C23.6989 39.25 23.8896 39.171 24.0303 39.0303C24.1709 38.8897 24.2499 38.6989 24.2499 38.5V35.5C24.2499 28.4696 29.9696 22.75 36.9999 22.75C44.0303 22.75 49.7499 28.4696 49.7499 35.5V38.5C49.7499 38.6989 49.829 38.8897 49.9696 39.0303C50.1103 39.171 50.301 39.25 50.4999 39.25V42.25H49.7499C49.551 42.25 49.3603 42.329 49.2196 42.4697C49.079 42.6103 48.9999 42.8011 48.9999 43V43.2865L47.6583 43.9573C47.1588 44.2049 46.7386 44.5876 46.4455 45.0619C46.1524 45.5361 45.9981 46.0831 45.9999 46.6406V52.8594C45.9981 53.4169 46.1524 53.9639 46.4455 54.4381C46.7386 54.9124 47.1588 55.2951 47.6583 55.5427L48.9999 56.2135V56.5C48.9999 56.6989 49.079 56.8897 49.2196 57.0303C49.3603 57.171 49.551 57.25 49.7499 57.25H54.0624C54.7087 57.2493 55.3282 56.9922 55.7852 56.5353C56.2422 56.0783 56.4992 55.4587 56.4999 54.8125V54.7989C57.3837 54.459 58.1436 53.8591 58.6792 53.0783C59.2148 52.2975 59.501 51.3726 59.4999 50.4258V49.0742C59.501 48.1274 59.2149 47.2025 58.6792 46.4216C58.1436 45.6408 57.3837 45.0409 56.4999 44.701V44.701ZM17.4999 53.1309C17.0405 52.8448 16.6617 52.4462 16.3992 51.9728C16.1367 51.4995 15.9993 50.967 15.9999 50.4258V49.0742C15.9993 48.533 16.1368 48.0006 16.3992 47.5272C16.6617 47.0539 17.0405 46.6553 17.4999 46.3692V53.1309ZM24.9999 44.9635L25.6707 45.2989C25.9205 45.4227 26.1306 45.6141 26.2771 45.8512C26.4237 46.0884 26.5009 46.3618 26.4999 46.6406V52.8594C26.5009 53.1382 26.4237 53.4116 26.2771 53.6488C26.1306 53.8859 25.9205 54.0773 25.6707 54.2011L24.9999 54.5365V44.9635ZM48.9999 54.5365L48.3292 54.2011C48.0794 54.0773 47.8693 53.8859 47.7227 53.6488C47.5762 53.4116 47.499 53.1382 47.4999 52.8594V46.6406C47.499 46.3618 47.5762 46.0884 47.7227 45.8512C47.8693 45.6141 48.0794 45.4227 48.3292 45.2989L48.9999 44.9635V54.5365ZM23.4999 55.75H21.9999V49C21.9999 48.8011 21.9209 48.6103 21.7803 48.4697C21.6396 48.329 21.4489 48.25 21.2499 48.25C21.051 48.25 20.8603 48.329 20.7196 48.4697C20.579 48.6103 20.4999 48.8011 20.4999 49V55.75H19.9374C19.6889 55.7497 19.4506 55.6509 19.2748 55.4751C19.0991 55.2994 19.0002 55.0611 18.9999 54.8125V44.6875C19.0002 44.4389 19.0991 44.2006 19.2748 44.0249C19.4506 43.8491 19.6889 43.7503 19.9374 43.75H20.4999V46C20.4999 46.1989 20.579 46.3897 20.7196 46.5303C20.8603 46.671 21.051 46.75 21.2499 46.75C21.4489 46.75 21.6396 46.671 21.7803 46.5303C21.9209 46.3897 21.9999 46.1989 21.9999 46V43.75H23.4999V55.75ZM20.4999 42.25V39.25H21.9999V42.25H20.4999ZM36.9999 21.25C29.1425 21.25 22.7499 27.6425 22.7499 35.5V37.75H19.7499V35.5C19.7499 25.9883 27.4883 18.25 36.9999 18.25C46.5116 18.25 54.2499 25.9883 54.2499 35.5V37.75H51.2499V35.5C51.2499 27.6425 44.8574 21.25 36.9999 21.25ZM53.4999 39.25V42.25H51.9999V39.25H53.4999ZM54.9999 45.25V54.8125C54.9997 55.0611 54.9008 55.2994 54.7251 55.4751C54.5493 55.6509 54.311 55.7497 54.0624 55.75H53.4999V49C53.4999 48.8011 53.4209 48.6103 53.2803 48.4697C53.1396 48.329 52.9489 48.25 52.7499 48.25C52.551 48.25 52.3603 48.329 52.2196 48.4697C52.079 48.6103 51.9999 48.8011 51.9999 49V55.75H50.4999V43.75H51.9999V46C51.9999 46.1989 52.079 46.3897 52.2196 46.5303C52.3603 46.671 52.551 46.75 52.7499 46.75C52.9489 46.75 53.1396 46.671 53.2803 46.5303C53.4209 46.3897 53.4999 46.1989 53.4999 46V43.75H54.0624C54.311 43.7503 54.5493 43.8491 54.7251 44.0249C54.9008 44.2006 54.9997 44.4389 54.9999 44.6875V45.25ZM57.9999 50.4258C58.0006 50.967 57.8632 51.4995 57.6007 51.9729C57.3382 52.4463 56.9594 52.8449 56.4999 53.1311V46.3691C56.9594 46.6552 57.3382 47.0538 57.6007 47.5272C57.8632 48.0005 58.0006 48.533 57.9999 49.0742V50.4258Z" fill="white"/>
<path d="M29.5 49C29.5 49.1989 29.579 49.3897 29.7197 49.5303C29.8603 49.671 30.0511 49.75 30.25 49.75H32.5C32.6499 49.75 32.7964 49.7051 32.9205 49.6211C33.0446 49.537 33.1407 49.4177 33.1964 49.2785L33.9077 47.5L36.2832 55.2204C36.3303 55.3737 36.4254 55.5079 36.5544 55.6032C36.6834 55.6985 36.8396 55.75 37 55.75C37.0099 55.75 37.02 55.7498 37.0301 55.7494C37.1955 55.7428 37.3541 55.6817 37.4811 55.5756C37.6081 55.4694 37.6965 55.3243 37.7324 55.1627L40.1084 44.4707L41.5316 49.2156C41.578 49.3701 41.6729 49.5055 41.8023 49.6018C41.9317 49.698 42.0887 49.75 42.25 49.75H43.75C43.9489 49.75 44.1397 49.671 44.2803 49.5303C44.421 49.3897 44.5 49.1989 44.5 49C44.5 48.8011 44.421 48.6103 44.2803 48.4697C44.1397 48.329 43.9489 48.25 43.75 48.25H42.808L40.7184 41.2844C40.6707 41.1254 40.5717 40.9867 40.4367 40.89C40.3018 40.7934 40.1386 40.7442 39.9727 40.7503C39.8068 40.7563 39.6476 40.8172 39.52 40.9234C39.3925 41.0297 39.3038 41.1752 39.2678 41.3373L36.8829 52.0694L34.7168 45.0294C34.6712 44.8811 34.5807 44.7507 34.4578 44.656C34.3349 44.5613 34.1857 44.507 34.0307 44.5006C33.8757 44.4943 33.7225 44.5361 33.5923 44.6205C33.4621 44.7048 33.3612 44.8274 33.3036 44.9715L31.9922 48.25H30.25C30.0511 48.25 29.8603 48.329 29.7197 48.4697C29.579 48.6103 29.5 48.8011 29.5 49Z" fill="white"/>
<path d="M31.75 34.75V32.5C31.75 32.3011 31.671 32.1103 31.5303 31.9697C31.3897 31.829 31.1989 31.75 31 31.75C30.8011 31.75 30.6103 31.829 30.4697 31.9697C30.329 32.1103 30.25 32.3011 30.25 32.5V34.75C30.25 34.9489 30.329 35.1397 30.4697 35.2803C30.6103 35.421 30.8011 35.5 31 35.5C31.1989 35.5 31.3897 35.421 31.5303 35.2803C31.671 35.1397 31.75 34.9489 31.75 34.75Z" fill="white"/>
<path d="M34 37.75C34.1989 37.75 34.3897 37.671 34.5303 37.5303C34.671 37.3897 34.75 37.1989 34.75 37V31C34.75 30.8011 34.671 30.6103 34.5303 30.4697C34.3897 30.329 34.1989 30.25 34 30.25C33.8011 30.25 33.6103 30.329 33.4697 30.4697C33.329 30.6103 33.25 30.8011 33.25 31V37C33.25 37.1989 33.329 37.3897 33.4697 37.5303C33.6103 37.671 33.8011 37.75 34 37.75Z" fill="white"/>
<path d="M37.75 38.5V29.5C37.75 29.3011 37.671 29.1103 37.5303 28.9697C37.3897 28.829 37.1989 28.75 37 28.75C36.8011 28.75 36.6103 28.829 36.4697 28.9697C36.329 29.1103 36.25 29.3011 36.25 29.5V38.5C36.25 38.6989 36.329 38.8897 36.4697 39.0303C36.6103 39.171 36.8011 39.25 37 39.25C37.1989 39.25 37.3897 39.171 37.5303 39.0303C37.671 38.8897 37.75 38.6989 37.75 38.5Z" fill="white"/>
<path d="M40 37.75C40.1989 37.75 40.3897 37.671 40.5303 37.5303C40.671 37.3897 40.75 37.1989 40.75 37V31C40.75 30.8011 40.671 30.6103 40.5303 30.4697C40.3897 30.329 40.1989 30.25 40 30.25C39.8011 30.25 39.6103 30.329 39.4697 30.4697C39.329 30.6103 39.25 30.8011 39.25 31V37C39.25 37.1989 39.329 37.3897 39.4697 37.5303C39.6103 37.671 39.8011 37.75 40 37.75Z" fill="white"/>
<path d="M43.75 34.75V32.5C43.75 32.3011 43.671 32.1103 43.5303 31.9697C43.3897 31.829 43.1989 31.75 43 31.75C42.8011 31.75 42.6103 31.829 42.4697 31.9697C42.329 32.1103 42.25 32.3011 42.25 32.5V34.75C42.25 34.9489 42.329 35.1397 42.4697 35.2803C42.6103 35.421 42.8011 35.5 43 35.5C43.1989 35.5 43.3897 35.421 43.5303 35.2803C43.671 35.1397 43.75 34.9489 43.75 34.75Z" fill="white"/>
<path d="M46.75 34V33.25C46.75 33.0511 46.671 32.8603 46.5303 32.7197C46.3897 32.579 46.1989 32.5 46 32.5C45.8011 32.5 45.6103 32.579 45.4697 32.7197C45.329 32.8603 45.25 33.0511 45.25 33.25V34C45.25 34.1989 45.329 34.3897 45.4697 34.5303C45.6103 34.671 45.8011 34.75 46 34.75C46.1989 34.75 46.3897 34.671 46.5303 34.5303C46.671 34.3897 46.75 34.1989 46.75 34Z" fill="white"/>
<path d="M28.75 33.25C28.75 33.0511 28.671 32.8603 28.5303 32.7197C28.3897 32.579 28.1989 32.5 28 32.5C27.8011 32.5 27.6103 32.579 27.4697 32.7197C27.329 32.8603 27.25 33.0511 27.25 33.25V34C27.25 34.1989 27.329 34.3897 27.4697 34.5303C27.6103 34.671 27.8011 34.75 28 34.75C28.1989 34.75 28.3897 34.671 28.5303 34.5303C28.671 34.3897 28.75 34.1989 28.75 34V33.25Z" fill="white"/>
</svg>
