<svg width="74" height="74" viewBox="0 0 74 74" fill="none" xmlns="http://www.w3.org/2000/svg">
<rect width="74" height="74" rx="6" fill="#4DACB9"/>
<g clip-path="url(#clip0)">
<g clip-path="url(#clip1)">
<path d="M44.0429 44.6561H40.841V41.2152C40.841 40.594 40.5543 40.0205 40.172 39.6382C39.7419 39.2081 39.2162 38.9691 38.5949 38.9691H29.1326C28.5592 38.9691 27.9857 39.2081 27.6034 39.5904C27.1733 40.0205 26.9343 40.5462 26.9343 41.1675V44.6083H23.7325C22.8245 44.6083 22.012 44.9906 21.4386 45.5641C20.8651 46.1375 20.4828 46.95 20.4828 47.858V57.7503C20.4828 58.6583 20.8651 59.4707 21.4386 60.0442C22.012 60.6177 22.8245 61 23.7325 61H44.0429C44.9509 61 45.7633 60.6177 46.3368 60.0442C46.9102 59.4707 47.2926 58.6583 47.2926 57.7503V47.9057C47.2926 46.9977 46.9102 46.1853 46.3368 45.6119C45.7633 45.0384 44.9509 44.6561 44.0429 44.6561ZM28.607 41.1675C28.607 41.0241 28.6548 40.8807 28.7503 40.7851C28.8459 40.6896 28.9893 40.6418 29.1326 40.6418H38.5949C38.7383 40.6418 38.8817 40.6896 39.025 40.7851C39.1206 40.8807 39.1684 41.0241 39.1684 41.1675V44.6083H28.607V41.1675V41.1675ZM22.1554 47.858C22.1554 47.4278 22.3466 47.0455 22.6333 46.7588C22.92 46.4721 23.3024 46.2809 23.7325 46.2809H44.0429C44.473 46.2809 44.8553 46.4721 45.142 46.7588C45.2854 46.8544 45.381 47.0455 45.4766 47.1889C43.8039 47.5234 41.5579 48.2881 39.0728 49.1483C32.2867 51.4421 23.6369 54.4051 22.1554 50.5819V47.858V47.858ZM45.6199 57.7025C45.6199 58.1326 45.4288 58.515 45.142 58.8017C44.8553 59.0884 44.473 59.2796 44.0429 59.2796H23.7325C23.3024 59.2796 22.8723 59.0884 22.6333 58.8017C22.3466 58.515 22.1554 58.1326 22.1554 57.7025V53.1148C25.6918 55.4087 33.3859 52.7802 39.5985 50.6775C41.9402 49.8651 44.0907 49.1483 45.6199 48.8137V57.7025Z" fill="white"/>
<path d="M57.2803 13.2585C57.0414 13.0196 56.6591 12.924 56.3723 13.0674C53.0271 14.071 49.2517 15.7914 45.9065 17.8941C44.2339 18.9455 42.7046 20.0924 41.3187 21.2871C41.1276 21.3827 41.032 21.4783 40.9364 21.6217C40.0762 22.4341 39.2638 23.2943 38.5947 24.1545C36.7788 26.4962 35.9185 28.9812 36.6354 31.4185C36.731 31.753 36.8743 32.0875 37.0177 32.3742L33.2423 36.1496C32.9078 36.4841 32.9078 37.0098 33.2423 37.3443C33.5769 37.6789 34.1026 37.6789 34.4371 37.3443L38.2124 33.569C38.547 33.7123 38.8337 33.8557 39.1682 33.9513C41.5577 34.7159 44.0427 33.8557 46.4322 31.9919C47.2924 31.3229 48.1526 30.5583 48.965 29.6503C49.1084 29.5547 49.2517 29.4113 49.2995 29.2679C50.4943 27.9298 51.6412 26.3528 52.6448 24.6324C54.7475 21.2871 56.4679 17.5118 57.4715 14.1665C57.5671 13.8798 57.5193 13.4975 57.2803 13.2585ZM53.505 15.9825L48.1048 21.3827L47.7703 18.8499C49.6341 17.7507 51.5934 16.7472 53.505 15.9825ZM46.1932 19.8057L46.6233 22.8642L43.1347 26.3528L42.609 22.4819C43.6604 21.5739 44.9029 20.6659 46.1932 19.8057ZM38.3558 31.1795C38.3558 31.1317 38.308 31.0839 38.308 31.0361C37.7345 29.2202 38.4514 27.213 39.9806 25.2537C40.3152 24.8235 40.6975 24.3457 41.1276 23.9156L41.701 27.8343L38.3558 31.1795ZM45.4286 30.7016C43.4692 32.1831 41.4621 32.9477 39.6461 32.3742C39.5983 32.3742 39.5505 32.3265 39.5027 32.3265L42.848 28.9812L46.7667 29.5547C46.3366 29.9848 45.9065 30.3671 45.4286 30.7016ZM48.2004 28.0254L44.3295 27.4997L47.8181 24.0111L50.8766 24.4412C50.0164 25.7315 49.1084 26.9741 48.2004 28.0254ZM51.8324 22.912L49.2995 22.5775L54.6997 17.1295C53.9351 19.041 52.9315 21.0482 51.8324 22.912Z" fill="white"/>
</g>
</g>
<defs>
<clipPath id="clip0">
<rect width="50" height="50" fill="white" transform="translate(12 12)"/>
</clipPath>
<clipPath id="clip1">
<rect width="48" height="48" fill="white" transform="translate(15 13)"/>
</clipPath>
</defs>
</svg>
