<svg width="26" height="26" viewBox="0 0 26 26" fill="none" xmlns="http://www.w3.org/2000/svg">
<path d="M22.1914 0H3.80859C1.70871 0 0 1.70871 0 3.80859V22.1914C0 24.2913 1.70871 26 3.80859 26H22.1914C24.2913 26 26 24.2913 26 22.1914V3.80859C26 1.70871 24.2913 0 22.1914 0ZM13.0508 19.8047C9.27055 19.8047 6.19531 16.7294 6.19531 12.9492C6.19531 9.16899 9.27055 6.09375 13.0508 6.09375C16.831 6.09375 19.9062 9.16899 19.9062 12.9492C19.9062 16.7294 16.831 19.8047 13.0508 19.8047ZM20.668 7.61719C19.408 7.61719 18.3828 6.59204 18.3828 5.33203C18.3828 4.07202 19.408 3.04688 20.668 3.04688C21.928 3.04688 22.9531 4.07202 22.9531 5.33203C22.9531 6.59204 21.928 7.61719 20.668 7.61719Z" fill="#545151"/>
<path d="M20.668 4.57031C20.2476 4.57031 19.9062 4.9117 19.9062 5.33203C19.9062 5.75237 20.2476 6.09375 20.668 6.09375C21.0883 6.09375 21.4297 5.75237 21.4297 5.33203C21.4297 4.9117 21.0883 4.57031 20.668 4.57031Z" fill="#545151"/>
<path d="M13.0508 7.61719C10.111 7.61719 7.71875 10.0095 7.71875 12.9492C7.71875 15.889 10.111 18.2812 13.0508 18.2812C15.9905 18.2812 18.3828 15.889 18.3828 12.9492C18.3828 10.0095 15.9905 7.61719 13.0508 7.61719Z" fill="#545151"/>
</svg>
