<svg width="125" height="91" viewBox="0 0 125 91" fill="none" xmlns="http://www.w3.org/2000/svg">
<path d="M0.59375 75.3281C8.65625 73.0781 14.5625 69.3281 18.3125 64.0781C22.1562 58.8281 24.3594 51.4688 24.9219 42H0.59375V0.09375H43.9062V36.375C43.9062 42.75 43.0625 49.4062 41.375 56.3438C39.6875 63.2812 36.5469 69.2812 31.9531 74.3438C26.9844 79.7812 21.125 83.8594 14.375 86.5781C7.71875 89.3906 3.125 90.7969 0.59375 90.7969V75.3281ZM80.75 75.3281C88.8125 73.0781 94.7188 69.3281 98.4688 64.0781C102.312 58.8281 104.516 51.4688 105.078 42H80.75V0.09375H124.062V36.375C124.062 42.75 123.219 49.4062 121.531 56.3438C119.844 63.2812 116.703 69.2812 112.109 74.3438C107.141 79.7812 101.281 83.8594 94.5312 86.5781C87.875 89.3906 83.2812 90.7969 80.75 90.7969V75.3281Z" fill="black" fill-opacity="0.08"/>
</svg>
