<svg width="1440" height="8" viewBox="0 0 1440 8" fill="none" xmlns="http://www.w3.org/2000/svg">
<path d="M-6 0H114.5V7.61053H-6V0Z" fill="#72A92C"/>
<path d="M355.5 0H476V7.61053H355.5V0Z" fill="#72A92C"/>
<path d="M717 0H837.5V7.61053H717V0Z" fill="#72A92C"/>
<path d="M1078.5 0H1199V7.61053H1078.5V0Z" fill="#72A92C"/>
<path d="M114.5 0H235V7.61053H114.5V0Z" fill="#FF8901"/>
<path d="M476 0H596.5V7.61053H476V0Z" fill="#FF8901"/>
<path d="M837.5 0H958V7.61053H837.5V0Z" fill="#FF8901"/>
<path d="M1199 0H1319.5V7.61053H1199V0Z" fill="#FF8901"/>
<path d="M235 0H355.5V7.61053H235V0Z" fill="#131D3B"/>
<path d="M596.5 0H717V7.61053H596.5V0Z" fill="#131D3B"/>
<path d="M958 0H1078.5V7.61053H958V0Z" fill="#131D3B"/>
<path d="M1319.5 0H1440V7.61053H1319.5V0Z" fill="#131D3B"/>
</svg>
