<svg width="74" height="74" viewBox="0 0 74 74" fill="none" xmlns="http://www.w3.org/2000/svg">
<rect width="74" height="74" rx="6" fill="#131D3B"/>
<path d="M38.2084 39.3945H18.9596C18.5713 39.3945 18.2565 39.7092 18.2565 40.0976C18.2565 40.486 18.5713 40.8007 18.9596 40.8007H38.2083C38.5967 40.8007 38.9114 40.4859 38.9114 40.0976C38.9115 39.7092 38.5967 39.3945 38.2084 39.3945V39.3945Z" fill="white"/>
<path d="M38.2084 43.8317H18.9596C18.5713 43.8317 18.2565 44.1464 18.2565 44.5348C18.2565 44.9232 18.5713 45.2379 18.9596 45.2379H38.2083C38.5967 45.2379 38.9114 44.9232 38.9114 44.5348C38.9115 44.1464 38.5967 43.8317 38.2084 43.8317V43.8317Z" fill="white"/>
<path d="M28.584 48.2689H18.9596C18.5713 48.2689 18.2565 48.5837 18.2565 48.972C18.2565 49.3604 18.5713 49.6751 18.9596 49.6751H28.584C28.9723 49.6751 29.2871 49.3604 29.2871 48.972C29.2871 48.5836 28.9723 48.2689 28.584 48.2689Z" fill="white"/>
<path d="M56.7069 30.52H37.4581C37.0698 30.52 36.755 30.8347 36.755 31.2231C36.755 31.6116 37.0698 31.9263 37.4581 31.9263H56.7069C57.0953 31.9263 57.41 31.6116 57.41 31.2231C57.41 30.8347 57.0953 30.52 56.7069 30.52Z" fill="white"/>
<path d="M56.7075 34.9572H47.0831C46.6947 34.9572 46.38 35.2719 46.38 35.6603C46.38 36.0487 46.6947 36.3634 47.0831 36.3634H56.7075C57.0959 36.3634 57.4106 36.0487 57.4106 35.6603C57.4106 35.2719 57.0959 34.9572 56.7075 34.9572V34.9572Z" fill="white"/>
<path d="M17.355 18.369H31.4178C31.8061 18.369 32.1209 18.0543 32.1209 17.6659C32.1209 17.2775 31.8061 16.9627 31.4178 16.9627H17.355C16.9667 16.9627 16.6519 17.2775 16.6519 17.6659C16.6519 18.0543 16.9667 18.369 17.355 18.369V18.369Z" fill="white"/>
<path d="M17.355 21.8844H24.3863C24.7746 21.8844 25.0894 21.5697 25.0894 21.1813C25.0894 20.7929 24.7746 20.4781 24.3863 20.4781H17.355C16.9667 20.4781 16.6519 20.7929 16.6519 21.1813C16.6519 21.5697 16.9667 21.8844 17.355 21.8844V21.8844Z" fill="white"/>
<path d="M39.6291 34.1522H17.5399C15.0376 34.1522 13.0017 36.188 13.0017 38.6904V50.0996C13.0017 52.6019 15.0375 54.6377 17.5399 54.6377H17.6984L16.7897 59.6832C16.7038 60.1601 16.9326 60.6353 17.3591 60.8653C17.7908 61.0982 18.3127 61.0217 18.6597 60.6922L24.8816 54.786C24.9824 54.6903 25.1143 54.6377 25.2532 54.6377H39.6291C42.1314 54.6377 44.1672 52.6019 44.1672 50.0996V38.6904C44.1674 36.188 42.1315 34.1522 39.6291 34.1522V34.1522ZM42.761 50.0996C42.761 51.8264 41.356 53.2315 39.6291 53.2315H25.2533C24.7525 53.2315 24.2767 53.4213 23.9135 53.7661L18.3296 59.0666L19.1186 54.6859C19.2552 53.9276 18.672 53.2314 17.9027 53.2314H17.5399C15.813 53.2314 14.4081 51.8263 14.4081 50.0995V38.6904C14.4081 36.9635 15.813 35.5585 17.5399 35.5585H39.6291C41.356 35.5585 42.761 36.9635 42.761 38.6904V50.0996Z" fill="white"/>
<path d="M15.7612 25.5072H21.0056C21.0164 25.5072 21.0264 25.513 21.0318 25.5222L23.2717 29.3894C23.505 29.7922 23.9223 30.0327 24.3877 30.0327C24.8533 30.0327 25.2705 29.7922 25.5038 29.3894L27.7437 25.5223C27.7492 25.5129 27.7592 25.5072 27.77 25.5072H33.0142C34.5152 25.5072 35.7362 24.2861 35.7362 22.7852V15.7219C35.7361 14.2211 34.5151 13 33.0142 13H15.7612C14.2604 13 13.0393 14.2211 13.0393 15.7219V16.019C13.0393 16.4074 13.3541 16.7222 13.7424 16.7222C14.1307 16.7222 14.4456 16.4074 14.4456 16.019V15.7219C14.4457 14.9964 15.0358 14.4063 15.7612 14.4063H33.0142C33.7396 14.4063 34.3298 14.9964 34.3298 15.7218V22.7851C34.3298 23.5105 33.7396 24.1008 33.0142 24.1008H27.7699C27.2591 24.1008 26.7828 24.3753 26.5267 24.8173L24.3877 28.5103L22.2487 24.8173C21.9926 24.3753 21.5164 24.1008 21.0055 24.1008H15.7612C15.0357 24.1008 14.4456 23.5105 14.4456 22.7851V19.3059C14.4456 18.9175 14.1307 18.6028 13.7424 18.6028C13.3541 18.6028 13.0393 18.9175 13.0393 19.3059V22.7852C13.0393 24.2861 14.2604 25.5072 15.7612 25.5072V25.5072Z" fill="white"/>
<path d="M56.8911 26.1957H37.2765C35.011 26.1957 33.168 28.0388 33.168 30.3042V31.5685C33.168 31.9569 33.4828 32.2716 33.8711 32.2716C34.2594 32.2716 34.5742 31.9569 34.5742 31.5685V30.3042C34.5742 28.8141 35.7864 27.6019 37.2764 27.6019H56.8911C58.3812 27.6019 59.5934 28.8141 59.5934 30.3042V40.3025C59.5934 41.7926 58.3812 43.0048 56.8911 43.0048H56.5689C55.8354 43.0048 55.2819 43.6684 55.4117 44.389L56.0696 48.0424L51.2858 43.5013C50.9487 43.1811 50.5069 43.0048 50.0418 43.0048H46.752C46.3636 43.0048 46.0489 43.3195 46.0489 43.7079C46.0489 44.0963 46.3636 44.411 46.752 44.411H50.0418C50.1449 44.411 50.2429 44.4501 50.3176 44.5211L55.8424 49.7657C56.1784 50.0845 56.6794 50.1528 57.089 49.9315C57.4978 49.7109 57.717 49.2556 57.6346 48.7986L56.8444 44.4111H56.891C59.1565 44.4111 60.9995 42.568 60.9995 40.3026V30.3042C60.9996 28.0387 59.1566 26.1957 56.8911 26.1957V26.1957Z" fill="white"/>
</svg>
