<svg width="74" height="74" viewBox="0 0 74 74" fill="none" xmlns="http://www.w3.org/2000/svg">
<rect width="74" height="74" rx="6" fill="#131D3B"/>
<g clip-path="url(#clip0)">
<path d="M29.1769 49.7408C29.1647 49.6808 29.1469 49.6217 29.1235 49.5645C29.1001 49.5083 29.071 49.4539 29.0372 49.4033C29.0035 49.3517 28.9641 49.3039 28.921 49.2608C28.8779 49.2177 28.8301 49.1783 28.7785 49.1445C28.7279 49.1108 28.6735 49.0817 28.6163 49.0583C28.5601 49.0349 28.501 49.0161 28.441 49.0049C28.3201 48.9805 28.1954 48.9805 28.0754 49.0049C28.0154 49.0161 27.9563 49.0349 27.8991 49.0583C27.8429 49.0817 27.7885 49.1108 27.7379 49.1445C27.6863 49.1783 27.6385 49.2177 27.5954 49.2608C27.5522 49.3039 27.5129 49.3517 27.4791 49.4033C27.4444 49.4539 27.4163 49.5083 27.3929 49.5645C27.3694 49.6217 27.3507 49.6808 27.3394 49.7408C27.3272 49.8008 27.3207 49.8627 27.3207 49.9236C27.3207 49.9845 27.3272 50.0464 27.3394 50.1064C27.3507 50.1664 27.3694 50.2255 27.3929 50.2817C27.4163 50.3389 27.4444 50.3933 27.4791 50.4439C27.5129 50.4955 27.5522 50.5433 27.5954 50.5864C27.6385 50.6295 27.6863 50.6689 27.7379 50.7027C27.7885 50.7365 27.8429 50.7656 27.8991 50.789C27.9563 50.8124 28.0154 50.8312 28.0754 50.8424C28.1354 50.8546 28.1972 50.8612 28.2582 50.8612C28.3191 50.8612 28.381 50.8546 28.441 50.8424C28.501 50.8312 28.5601 50.8124 28.6163 50.789C28.6735 50.7656 28.7279 50.7364 28.7785 50.7027C28.8301 50.6689 28.8779 50.6295 28.921 50.5864C28.9641 50.5433 29.0035 50.4955 29.0372 50.4439C29.071 50.3933 29.1001 50.3389 29.1235 50.2817C29.1469 50.2255 29.1647 50.1664 29.1769 50.1064C29.1891 50.0464 29.1957 49.9845 29.1957 49.9236C29.1957 49.8627 29.1891 49.8008 29.1769 49.7408Z" fill="white"/>
<path d="M56.1243 50.0296C56.1207 50.0202 56.1169 50.0109 56.113 50.0017C55.2501 47.9826 53.2264 47.2364 50.8315 48.0544L44.3001 49.8605C43.9225 48.717 42.9806 47.7439 41.6488 47.2496C41.6405 47.2466 41.6323 47.2436 41.6239 47.2408L34.4445 44.8041C33.8469 44.0316 31.9751 42.0552 28.4704 42.0552C26.0212 42.0552 23.8546 43.7354 22.615 45.5668H13.9375C13.4197 45.5668 13 45.9865 13 46.5043V58.324C13 58.8418 13.4197 59.2615 13.9375 59.2615H19.5116C20.0294 59.2615 20.4491 58.8418 20.4491 58.324V57.5146H23.0631C23.5809 57.5146 24.0006 57.0949 24.0006 56.5771V56.3073C25.5244 56.4402 26.0256 56.7292 27.4251 57.5362C28.5014 58.1569 30.128 59.0948 33.0573 60.4119C33.0709 60.418 33.0847 60.4238 33.0985 60.4293C33.6607 60.6504 34.7598 60.9979 36.1147 60.9979C37.0578 60.9979 38.1252 60.8294 39.2207 60.3328L53.6574 55.1638C53.6831 55.1546 53.7084 55.1443 53.7332 55.1329C55.1129 54.4981 57.1689 52.709 56.1243 50.0296ZM18.5741 57.3864H14.875V47.4417H18.5741V57.3864ZM22.1256 55.6395H20.4491V47.4417H22.1256V55.6395ZM52.984 53.4132L38.5538 58.5799C38.5412 58.5844 38.524 58.5911 38.5115 58.5962C38.4989 58.6013 38.4862 58.6068 38.4738 58.6125C36.464 59.5361 34.5537 58.9832 33.805 58.6921C30.9754 57.4189 29.4652 56.548 28.3618 55.9117C26.8277 55.0271 26.0884 54.6007 24.0006 54.4283V46.8775C24.8893 45.421 26.6126 43.9301 28.4705 43.9301C31.6567 43.9301 33.0068 46.0025 33.0599 46.0861C33.1743 46.2723 33.3503 46.4126 33.5572 46.4828L41.008 49.0116C42.198 49.4583 42.8268 50.4773 42.5378 51.4936C42.4044 51.9629 42.0962 52.3521 41.67 52.5896C41.2474 52.825 40.759 52.8832 40.2934 52.7544L31.8941 50.0927C31.4002 49.9362 30.8735 50.2096 30.7172 50.7032C30.5607 51.1968 30.8341 51.7236 31.3277 51.8801L39.7416 54.5465C39.7505 54.5493 39.7594 54.552 39.7684 54.5545C40.1043 54.65 40.4463 54.6973 40.7863 54.6973C41.4086 54.6973 42.0241 54.5388 42.5826 54.2275C43.4463 53.7463 44.0709 52.9575 44.3413 52.0064C44.3628 51.9305 44.382 51.8545 44.3986 51.7786L51.4376 49.8286C52.4542 49.4813 53.7887 49.3562 54.3829 50.7246C54.9979 52.3312 53.3995 53.215 52.984 53.4132Z" fill="white"/>
<path d="M46.6614 25.3322C46.6493 25.2722 46.6314 25.2132 46.6071 25.156C46.5836 25.0997 46.5555 25.0453 46.5208 24.9947C46.4871 24.9432 46.4477 24.8953 46.4046 24.8522C46.3614 24.8091 46.3136 24.7697 46.2621 24.736C46.2114 24.7022 46.1571 24.6732 46.1008 24.6497C46.0436 24.6263 45.9846 24.6075 45.9255 24.5963C45.8046 24.5719 45.6799 24.5719 45.5589 24.5963C45.4989 24.6075 45.4399 24.6263 45.3836 24.6497C45.3264 24.6732 45.2721 24.7022 45.2214 24.736C45.1699 24.7697 45.1221 24.8091 45.0789 24.8522C45.0358 24.8953 44.9964 24.9432 44.9627 24.9947C44.9289 25.0453 44.8999 25.0997 44.8764 25.156C44.853 25.2132 44.8343 25.2722 44.823 25.3322C44.8108 25.3922 44.8043 25.4541 44.8043 25.515C44.8043 25.576 44.8108 25.6378 44.823 25.6978C44.8343 25.7578 44.853 25.8169 44.8764 25.8732C44.8999 25.9303 44.9289 25.9847 44.9627 26.0353C44.9964 26.0869 45.0358 26.1347 45.0789 26.1778C45.1221 26.221 45.1699 26.2603 45.2214 26.2941C45.2721 26.3278 45.3264 26.3569 45.3836 26.3803C45.4399 26.4038 45.4989 26.4216 45.5589 26.4338C45.6189 26.446 45.6808 26.4525 45.7418 26.4525C45.8027 26.4525 45.8646 26.446 45.9255 26.4338C45.9846 26.4216 46.0436 26.4038 46.1008 26.3803C46.1571 26.3569 46.2114 26.3278 46.2621 26.2941C46.3136 26.2603 46.3614 26.221 46.4046 26.1778C46.4477 26.1347 46.4871 26.0869 46.5208 26.0353C46.5555 25.9847 46.5836 25.9303 46.6071 25.8732C46.6314 25.8169 46.6493 25.7578 46.6614 25.6978C46.6736 25.6378 46.6793 25.576 46.6793 25.515C46.6793 25.4541 46.6736 25.3922 46.6614 25.3322Z" fill="white"/>
<path d="M60.0627 16.1773H54.4886C53.9709 16.1773 53.5511 16.597 53.5511 17.1148V17.9243H50.9371C50.4193 17.9243 49.9996 18.344 49.9996 18.8618V19.1316C48.4758 18.9985 47.9746 18.7096 46.5752 17.9026C45.499 17.282 43.8723 16.344 40.9429 15.0269C40.9293 15.0207 40.9156 15.015 40.9016 15.0096C39.9481 14.6344 37.449 13.8962 34.7799 15.1059L31.0074 16.4566L27.8275 13.2768C27.4614 12.9107 26.8677 12.9107 26.5017 13.2768L16.0618 23.7165C15.7242 24.0543 15.6594 24.64 16.0618 25.0424L33.9012 42.8818C34.1867 43.1674 34.8552 43.2537 35.2272 42.8818L44.7582 33.3508C45.006 33.3722 45.2632 33.3837 45.5297 33.3837C47.979 33.3837 50.1456 31.7035 51.3851 29.8722H60.0627C60.5805 29.8722 61.0002 29.4525 61.0002 28.9347V17.1148C61.0002 16.597 60.5805 16.1773 60.0627 16.1773ZM27.1645 15.2655L29.3012 17.4023C28.6661 17.7951 27.9317 18.0053 27.1645 18.0053C26.3971 18.0053 25.6629 17.7952 25.0277 17.4023L27.1645 15.2655ZM20.1874 26.5163L18.0507 24.3794L20.1874 22.2427C20.5802 22.8778 20.7904 23.6122 20.7904 24.3794C20.7904 25.1467 20.5803 25.881 20.1874 26.5163ZM34.5642 40.893L32.4279 38.7566C33.7322 37.9517 35.3961 37.9517 36.7005 38.7566L34.5642 40.893ZM38.0513 37.4061C35.9796 35.9033 33.1489 35.9033 31.0772 37.4061L21.5381 27.8668C22.2702 26.86 22.6654 25.6505 22.6654 24.3794C22.6654 23.1083 22.2702 21.8989 21.5381 20.892L23.6772 18.753C24.684 19.4851 25.8934 19.8804 27.1646 19.8804C28.4357 19.8804 29.6451 19.4851 30.652 18.753L32.6797 20.7807C32.2422 20.8453 31.8155 20.9895 31.4176 21.2112C30.7456 21.5857 30.2184 22.1464 29.8901 22.8248C28.8326 23.0206 27.8535 23.5326 27.0855 24.3005C25.0019 26.3842 25.0019 29.7745 27.0856 31.8581C28.1274 32.8999 29.4958 33.4209 30.8644 33.4209C32.2329 33.4209 33.6014 32.9 34.6433 31.8581C35.3211 31.1803 35.7959 30.3473 36.0338 29.4394L39.1991 30.5137C38.8428 32.1644 39.2078 33.901 40.1922 35.2651L38.0513 37.4061ZM32.3515 28.1892C32.3597 28.1922 32.368 28.1952 32.3763 28.198L34.2509 28.8343C34.1094 29.4732 33.789 30.0607 33.3175 30.5323C31.9648 31.8848 29.764 31.885 28.4115 30.5323C27.0589 29.1798 27.0589 26.979 28.4115 25.6264C28.7378 25.3 29.1228 25.0449 29.5423 24.8719C29.7154 26.3121 30.7524 27.5958 32.3515 28.1892ZM41.5431 33.9142C41.1812 33.3245 40.9765 32.6515 40.9441 31.9645C41.3932 32.2892 41.942 32.6073 42.5975 32.8598L41.5431 33.9142ZM49.9995 28.561C49.111 30.0176 47.3876 31.5085 45.5297 31.5085C45.1821 31.5085 44.8563 31.4838 44.5517 31.4397C44.5505 31.4395 44.5493 31.4394 44.5481 31.4392C42.5234 31.1451 41.4343 29.9944 41.0754 29.5388C41.0562 29.5106 40.9748 29.404 40.9627 29.3863C40.8535 29.1911 40.6744 29.0342 40.446 28.9567L32.9922 26.4268C31.8027 25.9804 31.1739 24.9618 31.4621 23.9459C31.4622 23.9453 31.4624 23.9446 31.4626 23.944C31.4629 23.9432 31.4631 23.9424 31.4633 23.9416C31.5972 23.4738 31.9049 23.0858 32.3302 22.8489C32.7526 22.6135 33.241 22.555 33.7067 22.6841L42.1061 25.3458C42.5997 25.5025 43.1266 25.2289 43.283 24.7353C43.4394 24.2417 43.1661 23.7148 42.6725 23.5584L35.9923 21.4415L35.934 21.3832C35.9335 21.3826 35.9329 21.382 35.9322 21.3814L32.4738 17.923L35.4464 16.8585C35.4565 16.8549 35.4688 16.8503 35.4788 16.8462C35.4813 16.8452 35.4862 16.8433 35.4886 16.8423C35.5014 16.8371 35.5139 16.8317 35.5264 16.826C37.536 15.9024 39.4463 16.4552 40.1951 16.7464C43.0247 18.0196 44.535 18.8905 45.6385 19.5267C47.1726 20.4115 47.9118 20.8377 49.9995 21.0101V28.561V28.561ZM53.5511 27.997H51.8746V19.7993H53.5511V27.997ZM59.1252 27.997H55.4261V18.0523H59.1252V27.997Z" fill="white"/>
</g>
<defs>
<clipPath id="clip0">
<rect width="48" height="48" fill="white" transform="translate(13 13)"/>
</clipPath>
</defs>
</svg>
