<svg width="14" height="14" viewBox="0 0 14 14" fill="none" xmlns="http://www.w3.org/2000/svg">
<g opacity="0.59">
<path d="M10.5 4.66664C11.4665 4.66664 12.25 3.88314 12.25 2.91664C12.25 1.95014 11.4665 1.16664 10.5 1.16664C9.5335 1.16664 8.75 1.95014 8.75 2.91664C8.75 3.88314 9.5335 4.66664 10.5 4.66664Z" stroke="black" stroke-linecap="round" stroke-linejoin="round"/>
<path d="M3.5 8.75C4.4665 8.75 5.25 7.9665 5.25 7C5.25 6.0335 4.4665 5.25 3.5 5.25C2.5335 5.25 1.75 6.0335 1.75 7C1.75 7.9665 2.5335 8.75 3.5 8.75Z" stroke="black" stroke-linecap="round" stroke-linejoin="round"/>
<path d="M10.5 12.8334C11.4665 12.8334 12.25 12.0499 12.25 11.0834C12.25 10.1169 11.4665 9.33336 10.5 9.33336C9.5335 9.33336 8.75 10.1169 8.75 11.0834C8.75 12.0499 9.5335 12.8334 10.5 12.8334Z" stroke="black" stroke-linecap="round" stroke-linejoin="round"/>
<path d="M5.01074 7.88084L8.99491 10.2025" stroke="black" stroke-linecap="round" stroke-linejoin="round"/>
<path d="M8.98908 3.79749L5.01074 6.11915" stroke="black" stroke-linecap="round" stroke-linejoin="round"/>
</g>
</svg>
