<svg width="18" height="18" viewBox="0 0 18 18" fill="none" xmlns="http://www.w3.org/2000/svg">
<g clip-path="url(#clip0)">
<path d="M13.6846 11.9074C13.0965 11.3269 12.3624 11.3269 11.7781 11.9074C11.3323 12.3494 10.8866 12.7914 10.4484 13.2409C10.3285 13.3645 10.2274 13.3907 10.0813 13.3083C9.79288 13.151 9.48574 13.0236 9.20857 12.8513C7.91633 12.0385 6.83384 10.9935 5.87496 9.81739C5.39926 9.23307 4.97601 8.60755 4.6801 7.90337C4.62017 7.76104 4.63141 7.66739 4.74752 7.55128C5.19325 7.12053 5.62774 6.67855 6.06598 6.23656C6.67652 5.62228 6.67652 4.90312 6.06224 4.28509C5.71389 3.933 5.36555 3.5884 5.01721 3.23631C4.65763 2.87673 4.30179 2.5134 3.93847 2.15757C3.3504 1.58449 2.61626 1.58449 2.03194 2.16132C1.58246 2.6033 1.15172 3.05652 0.694749 3.49101C0.271493 3.8918 0.0579922 4.38248 0.0130446 4.95556C-0.0581224 5.88822 0.170361 6.76844 0.492485 7.62619C1.15172 9.40162 2.15555 10.9785 3.37288 12.4243C5.01721 14.3796 6.97992 15.9265 9.27599 17.0427C10.3098 17.5446 11.381 17.9304 12.5459 17.9941C13.3475 18.039 14.0442 17.8368 14.6023 17.2113C14.9843 16.7843 15.4151 16.3947 15.8196 15.9864C16.4189 15.3796 16.4227 14.6455 15.8271 14.0462C15.1154 13.3308 14.4 12.6191 13.6846 11.9074Z" fill="#FF8901"/>
<path d="M12.9694 8.92219L14.3516 8.68621C14.1343 7.41644 13.535 6.26653 12.6248 5.3526C11.6622 4.38997 10.4449 3.78318 9.10395 3.5959L8.90918 4.98553C9.94672 5.13161 10.8906 5.59981 11.636 6.34519C12.3402 7.04937 12.8009 7.94083 12.9694 8.92219Z" fill="#FF8901"/>
<path d="M15.1307 2.91409C13.5351 1.31845 11.5162 0.310872 9.28755 -1.52588e-05L9.09277 1.38961C11.018 1.6593 12.7635 2.53203 14.1419 3.90668C15.4491 5.2139 16.3069 6.86573 16.6177 8.68236L17.9999 8.44638C17.6366 6.34134 16.644 4.43107 15.1307 2.91409Z" fill="#FF8901"/>
</g>
<defs>
<clipPath id="clip0">
<rect width="18" height="18" fill="white"/>
</clipPath>
</defs>
</svg>
