<svg width="14" height="15" viewBox="0 0 14 15" fill="none" xmlns="http://www.w3.org/2000/svg">
<g opacity="0.59" clip-path="url(#clip0)">
<path d="M9.91644 1.23533H11.4739C11.8041 1.22915 12.1249 1.35153 12.3754 1.57925C12.626 1.80696 12.7888 2.12416 12.8331 2.47062V6.79415C12.7888 7.14062 12.626 7.45781 12.3754 7.68553C12.1249 7.91325 11.8041 8.03563 11.4739 8.02945H9.91644M5.83311 9.26474V11.7353C5.83311 12.2268 6.01748 12.6981 6.34567 13.0456C6.67386 13.3931 7.11898 13.5883 7.58311 13.5883L9.91644 8.02945V1.23533H3.33644C3.05508 1.23196 2.78205 1.33637 2.56766 1.52933C2.35327 1.72228 2.21196 1.99077 2.16977 2.28533L1.36477 7.84415C1.33939 8.0212 1.35067 8.20197 1.39783 8.37394C1.44498 8.54591 1.52688 8.70497 1.63786 8.8401C1.74883 8.97523 1.88623 9.08319 2.04052 9.15652C2.19482 9.22984 2.36233 9.26677 2.53144 9.26474H5.83311Z" stroke="black" stroke-linecap="round" stroke-linejoin="round"/>
</g>
<defs>
<clipPath id="clip0">
<rect width="14" height="14.8235" fill="white"/>
</clipPath>
</defs>
</svg>
