<svg width="14" height="15" viewBox="0 0 14 15" fill="none" xmlns="http://www.w3.org/2000/svg">
<g opacity="0.59" clip-path="url(#clip0)">
<path d="M4.08366 13.5883H2.33366C2.02424 13.5883 1.72749 13.4581 1.5087 13.2265C1.28991 12.9948 1.16699 12.6806 1.16699 12.353V8.02947C1.16699 7.70185 1.28991 7.38765 1.5087 7.15598C1.72749 6.92432 2.02424 6.79418 2.33366 6.79418H4.08366M8.16699 5.55888V3.08829C8.16699 2.59686 7.98262 2.12556 7.65443 1.77807C7.32624 1.43057 6.88112 1.23535 6.41699 1.23535L4.08366 6.79418V13.5883H10.6637C10.945 13.5917 11.218 13.4872 11.4324 13.2943C11.6468 13.1013 11.7881 12.8329 11.8303 12.5383L12.6353 6.97947C12.6607 6.80242 12.6494 6.62165 12.6023 6.44968C12.5551 6.27771 12.4732 6.11865 12.3622 5.98352C12.2513 5.84839 12.1139 5.74043 11.9596 5.6671C11.8053 5.59378 11.6378 5.55685 11.4687 5.55888H8.16699Z" stroke="black" stroke-linecap="round" stroke-linejoin="round"/>
</g>
<defs>
<clipPath id="clip0">
<rect width="14" height="14.8235" fill="white"/>
</clipPath>
</defs>
</svg>
