<svg width="74" height="74" viewBox="0 0 74 74" fill="none" xmlns="http://www.w3.org/2000/svg">
<rect width="74" height="74" rx="6" fill="#72A92C"/>
<g clip-path="url(#clip0)">
<path d="M59.0339 46.9272H58.4811V22.0597C58.4811 21.0988 57.6994 20.3171 56.7386 20.3171H17.2614C16.3006 20.3171 15.5189 21.0988 15.5189 22.0597V46.9272H14.9661C13.882 46.9272 13 47.8092 13 48.8935V51.7168C13 52.8009 13.882 53.6829 14.9662 53.6829H28.9923C29.3808 53.6829 29.6955 53.3682 29.6955 52.9798C29.6955 52.5914 29.3808 52.2767 28.9923 52.2767H14.9662C14.6575 52.2767 14.4062 52.0255 14.4062 51.7168V48.8935C14.4062 48.5847 14.6575 48.3335 14.9662 48.3335H31.4371L32.3253 50.198C32.5597 50.6902 33.0634 51.0083 33.6086 51.0083H40.3914C40.9367 51.0083 41.4406 50.6901 41.6748 50.198L42.563 48.3335H59.0339C59.3426 48.3335 59.5938 48.5847 59.5938 48.8935V51.7168C59.5938 52.0255 59.3426 52.2767 59.0339 52.2767H31.8036C31.4152 52.2767 31.1005 52.5914 31.1005 52.9798C31.1005 53.3682 31.4152 53.6829 31.8036 53.6829H59.0339C60.1179 53.6829 61 52.801 61 51.7168V48.8935C61 47.8092 60.118 46.9272 59.0339 46.9272V46.9272ZM40.4052 49.5934C40.4027 49.5987 40.3973 49.602 40.3914 49.602H33.6086C33.6028 49.602 33.5972 49.5985 33.5948 49.5932L32.9948 48.3335H41.0054L40.4052 49.5934ZM55.6687 46.9272V39.9432C55.6687 39.5548 55.354 39.2401 54.9656 39.2401C54.5772 39.2401 54.2625 39.5548 54.2625 39.9432V46.9272H36.5632V42.1475C36.5632 39.9815 35.353 38.0567 33.4728 37.1073C33.8644 36.4188 34.0893 35.6237 34.0893 34.7766V32.9398H34.1307C34.8287 32.9398 35.3966 32.3719 35.3966 31.6739C35.3966 29.7088 33.7978 28.11 31.8326 28.11H25.737C24.4054 28.11 23.3221 29.1934 23.3221 30.5249C23.3221 31.4574 23.8536 32.2674 24.6293 32.6697V34.7766C24.6293 35.6251 24.855 36.4214 25.2479 37.1107C24.0068 37.7454 23.0179 38.8329 22.52 40.1496C22.3827 40.5128 22.5658 40.9185 22.9291 41.056C23.0109 41.0869 23.095 41.1015 23.1776 41.1015C23.4615 41.1015 23.729 40.9282 23.8354 40.6468C24.2436 39.5672 25.0916 38.6934 26.1452 38.2425C26.9896 39.0261 28.1192 39.5064 29.3593 39.5064C30.6002 39.5064 31.7303 39.0254 32.5749 38.2409C34.1348 38.9013 35.1568 40.4222 35.1568 42.1474V46.9271H23.5619V43.1961C23.5619 42.8077 23.2472 42.493 22.8588 42.493C22.4703 42.493 22.1556 42.8077 22.1556 43.1961V46.9271H19.7376V24.5359H54.2625V37.132C54.2625 37.5204 54.5772 37.8351 54.9656 37.8351C55.354 37.8351 55.6687 37.5204 55.6687 37.132V23.8328C55.6687 23.4444 55.354 23.1296 54.9656 23.1296H19.0345C18.6461 23.1296 18.3314 23.4444 18.3314 23.8328V46.9272H16.9251V22.0597C16.9251 21.8742 17.076 21.7234 17.2614 21.7234H56.7387C56.9241 21.7234 57.075 21.8742 57.075 22.0597V46.9272H55.6687ZM25.7371 31.5336C25.1808 31.5336 24.7284 31.0811 24.7284 30.5249C24.7284 29.9687 25.1808 29.5163 25.7371 29.5163H31.8327C32.9753 29.5163 33.9134 30.4089 33.9859 31.5336H25.7371ZM26.0358 34.7766V32.9398H32.6831V34.7766C32.6831 36.6093 31.1921 38.1003 29.3594 38.1003C27.5267 38.1003 26.0358 36.6093 26.0358 34.7766V34.7766Z" fill="white"/>
<path d="M50.9003 26.889H38.6733C37.9458 26.889 37.354 27.4809 37.354 28.2084V38.8581C37.354 39.5856 37.9458 40.1774 38.6733 40.1774H50.9003C51.6278 40.1774 52.2197 39.5856 52.2197 38.8581V28.2084C52.2197 27.4809 51.6277 26.889 50.9003 26.889V26.889ZM50.8134 38.7712H38.7602V28.2953H50.8133V38.7712H50.8134Z" fill="white"/>
<path d="M40.931 31.6064H48.6426C49.031 31.6064 49.3457 31.2917 49.3457 30.9033C49.3457 30.5149 49.031 30.2001 48.6426 30.2001H40.931C40.5426 30.2001 40.2278 30.5149 40.2278 30.9033C40.2278 31.2917 40.5426 31.6064 40.931 31.6064Z" fill="white"/>
<path d="M40.931 34.2363H48.6426C49.031 34.2363 49.3457 33.9216 49.3457 33.5332C49.3457 33.1448 49.031 32.8301 48.6426 32.8301H40.931C40.5426 32.8301 40.2278 33.1448 40.2278 33.5332C40.2278 33.9216 40.5426 34.2363 40.931 34.2363Z" fill="white"/>
<path d="M40.931 36.8662H48.6426C49.031 36.8662 49.3457 36.5515 49.3457 36.1631C49.3457 35.7746 49.031 35.4599 48.6426 35.4599H40.931C40.5426 35.4599 40.2278 35.7746 40.2278 36.1631C40.2278 36.5515 40.5426 36.8662 40.931 36.8662Z" fill="white"/>
</g>
<defs>
<clipPath id="clip0">
<rect width="48" height="48" fill="white" transform="translate(13 13)"/>
</clipPath>
</defs>
</svg>
