<svg width="74" height="74" viewBox="0 0 74 74" fill="none" xmlns="http://www.w3.org/2000/svg">
<rect width="74" height="74" rx="6" fill="#FF8901"/>
<g clip-path="url(#clip0)">
<path d="M59.7989 12H35.7989C34.0316 12 32.5989 13.4327 32.5989 15.2V18.672C16.3429 21.16 9.21486 40.92 20.4469 53.216C20.4469 53.216 20.5109 53.264 20.5349 53.296C29.5589 62.592 43.1829 61.816 51.0709 53.296C51.0709 53.296 51.1189 53.296 51.1349 53.24C55.8027 48.1673 57.6384 41.1035 56.0309 34.4H59.7989C61.5662 34.4 62.9989 32.9673 62.9989 31.2V15.2C62.9989 13.4327 61.5662 12 59.7989 12V12ZM43.7269 36.744C43.7269 37.288 43.7749 37.84 43.7829 38.4H41.2389L43.7269 36.744ZM54.9989 40C54.8264 44.3045 53.2023 48.4239 50.3909 51.688C48.5203 50.4887 46.4667 49.6024 44.3109 49.064C45.0036 46.0915 45.3685 43.052 45.3989 40H54.9989ZM16.5989 40H26.1989C26.2345 43.0526 26.6047 46.0921 27.3029 49.064C25.147 49.6024 23.0934 50.4887 21.2229 51.688C18.4056 48.4261 16.7758 44.3064 16.5989 40V40ZM21.2309 26.712C23.1079 27.9173 25.1699 28.8064 27.3349 29.344C26.6252 32.3119 26.2442 35.3488 26.1989 38.4H16.5989C16.7799 34.093 18.4124 29.9738 21.2309 26.712ZM32.5989 28.64C31.4922 28.5407 30.3919 28.3804 29.3029 28.16C29.9208 25.7946 31.0454 23.5918 32.5989 21.704V28.64ZM27.7429 27.792C25.8364 27.3216 24.0147 26.5579 22.3429 25.528C24.8814 23.0212 28.0711 21.2752 31.5509 20.488C29.7343 22.5958 28.4308 25.0958 27.7429 27.792ZM27.7429 50.608C28.4406 53.3061 29.749 55.8077 31.5669 57.92C28.0786 57.1322 24.8806 55.3836 22.3349 52.872C24.006 51.8464 25.8245 51.0829 27.7269 50.608H27.7429ZM29.3429 50.248C33.6304 49.3839 38.0473 49.3839 42.3349 50.248C39.0389 61.096 32.5989 61.112 29.3029 50.248H29.3429ZM43.9109 50.608C45.8133 51.0829 47.6317 51.8464 49.3029 52.872C46.7506 55.3875 43.5437 57.1364 40.0469 57.92C41.8648 55.8077 43.1731 53.3061 43.8709 50.608H43.9109ZM42.7509 48.704C38.1903 47.7686 33.4874 47.7686 28.9269 48.704C28.2349 45.8524 27.8566 42.9338 27.7989 40H36.5989C36.5989 40.4418 36.957 40.8 37.3989 40.8C37.7029 40.8 37.7589 40.72 38.8389 40H43.7989C43.7542 42.9323 43.3894 45.8509 42.7109 48.704H42.7509ZM36.5989 38.4H27.7989C27.8365 35.4713 28.1933 32.5554 28.8629 29.704C30.0884 29.9581 31.3279 30.1397 32.5749 30.248V31.2C32.5749 32.9673 34.0076 34.4 35.7749 34.4C36.2167 34.4 36.5749 34.7582 36.5749 35.2L36.5989 38.4ZM54.9989 38.4H45.3989C45.3989 37.488 45.3429 36.592 45.2789 35.72L47.2389 34.4H54.3749C54.7268 35.7069 54.936 37.048 54.9989 38.4V38.4ZM61.3989 31.2C61.3989 32.0837 60.6825 32.8 59.7989 32.8H46.9989C46.6469 32.8 47.3429 32.408 38.1989 38.504V35.2C38.1989 33.8745 37.1243 32.8 35.7989 32.8C34.9152 32.8 34.1989 32.0837 34.1989 31.2V15.2C34.1989 14.3163 34.9152 13.6 35.7989 13.6H59.7989C60.6825 13.6 61.3989 14.3163 61.3989 15.2V31.2Z" fill="white"/>
<path d="M41.8 16C39.3717 16.0044 37.4044 17.9718 37.4 20.4V25.6C37.4 26.0418 37.7581 26.4 38.2 26.4C38.6418 26.4 39 26.0418 39 25.6V22.4H44.6V25.6C44.6 26.0418 44.9581 26.4 45.4 26.4C45.8418 26.4 46.2 26.0418 46.2 25.6V20.4C46.1956 17.9718 44.2282 16.0044 41.8 16ZM39 20.8V20.4C39 18.8536 40.2536 17.6 41.8 17.6C43.3464 17.6 44.6 18.8536 44.6 20.4V20.8H39Z" fill="white"/>
<path d="M58.2001 21.6H55.0001V20C55.0001 19.5582 54.642 19.2 54.2001 19.2C53.7583 19.2 53.4001 19.5582 53.4001 20V21.6H50.2001C49.7583 21.6 49.4001 21.9582 49.4001 22.4C49.4001 22.8418 49.7583 23.2 50.2001 23.2H55.8001C55.8593 24.7316 55.3842 26.2361 54.4561 27.456C54.3681 27.552 54.2641 27.624 54.1681 27.712C53.501 27.0837 53.0313 26.2748 52.8161 25.384C52.6992 24.9614 52.264 24.7117 51.8401 24.824C51.6338 24.8784 51.4578 25.0129 51.3511 25.1977C51.2445 25.3824 51.216 25.6022 51.2721 25.808C51.5299 26.8183 52.0234 27.7532 52.7121 28.536C52.1577 28.7081 51.5807 28.7971 51.0001 28.8C50.5583 28.8 50.2001 29.1582 50.2001 29.6C50.2001 30.0418 50.5583 30.4 51.0001 30.4C52.1104 30.4235 53.2094 30.1735 54.2001 29.672C55.1914 30.1723 56.29 30.4222 57.4001 30.4C57.842 30.4 58.2001 30.0418 58.2001 29.6C58.2001 29.1582 57.842 28.8 57.4001 28.8C56.8089 28.8073 56.2203 28.7209 55.6561 28.544C56.8648 27.0323 57.4844 25.1336 57.4001 23.2H58.2001C58.642 23.2 59.0001 22.8418 59.0001 22.4C59.0001 21.9582 58.642 21.6 58.2001 21.6V21.6Z" fill="white"/>
</g>
<defs>
<clipPath id="clip0">
<rect width="48" height="48" fill="white" transform="translate(15 12)"/>
</clipPath>
</defs>
</svg>
