<svg width="19" height="19" viewBox="0 0 19 19" fill="none" xmlns="http://www.w3.org/2000/svg">
<path d="M17.2188 0H1.78125C0.801562 0 0 0.801562 0 1.78125V17.2188C0 18.1984 0.801562 19 1.78125 19H17.2188C18.1984 19 19 18.1984 19 17.2188V1.78125C19 0.801562 18.1984 0 17.2188 0ZM15.3888 13.3L13.6515 13.3261C13.6515 13.3261 13.2762 13.4009 12.787 13.0625C12.1374 12.6172 11.5247 11.4558 11.0461 11.6078C10.564 11.7598 10.5782 12.8024 10.5782 12.8024C10.5782 12.8024 10.5818 13.0257 10.4702 13.1432C10.3514 13.2727 10.1139 13.2988 10.1139 13.2988H9.3385C9.3385 13.2988 7.62375 13.4033 6.11325 11.8287C4.465 10.1139 3.0115 6.71175 3.0115 6.71175C3.0115 6.71175 2.926 6.4885 3.01863 6.38163C3.12194 6.25931 3.401 6.25219 3.401 6.25219L5.26062 6.2415C5.26062 6.2415 5.43519 6.27119 5.56106 6.36381C5.66556 6.43863 5.72019 6.58231 5.72019 6.58231C5.72019 6.58231 6.02063 7.3435 6.41844 8.02987C7.19388 9.36938 7.55725 9.66269 7.82088 9.52137C8.20325 9.31356 8.08806 7.62494 8.08806 7.62494C8.08806 7.62494 8.09519 7.01219 7.89569 6.74144C7.74013 6.53006 7.44681 6.46712 7.32094 6.45169C7.21644 6.43625 7.38744 6.19519 7.61069 6.08475C7.94438 5.92088 8.53456 5.91019 9.23281 5.91731C9.77431 5.92087 9.93462 5.95769 10.146 6.00638C10.7884 6.16194 10.5687 6.75925 10.5687 8.19256C10.5687 8.65331 10.4868 9.29813 10.8169 9.5095C10.9583 9.60213 11.3062 9.52375 12.179 8.04413C12.5911 7.34231 12.9022 6.51937 12.9022 6.51937C12.9022 6.51937 12.9687 6.37094 13.0732 6.308C13.1812 6.24506 13.3261 6.26406 13.3261 6.26406L15.2819 6.25337C15.2819 6.25337 15.8686 6.18331 15.9648 6.4505C16.0645 6.72837 15.7463 7.37794 14.9483 8.44312C13.6384 10.1911 13.49 10.0272 14.5813 11.0366C15.6204 12.0021 15.8353 12.4723 15.8733 12.5317C16.2961 13.2442 15.3912 13.3 15.3912 13.3H15.3888Z" fill="white"/>
</svg>
