<svg width="74" height="74" viewBox="0 0 74 74" fill="none" xmlns="http://www.w3.org/2000/svg">
<rect width="74" height="74" rx="6" fill="#131D3B"/>
<g clip-path="url(#clip0)">
<path d="M59.7514 49.2981H57.3472C57.922 48.6039 58.2668 47.7188 58.2668 46.7747V22.2642C58.2668 20.0747 56.4855 18.2934 54.2961 18.2934H38.6406C38.2522 18.2934 37.9375 18.6081 37.9375 18.9965C37.9375 19.3849 38.2522 19.6996 38.6406 19.6996H54.296C55.7101 19.6996 56.8605 20.85 56.8605 22.2642V46.7746C56.8605 48.0034 55.9576 49.0789 54.7517 49.298C53.7134 49.298 20.8762 49.298 19.2483 49.298C18.0424 49.0789 17.1395 48.0034 17.1395 46.7746V22.2642C17.1395 20.85 18.2899 19.6996 19.704 19.6996H35.3593C35.7477 19.6996 36.0624 19.3849 36.0624 18.9965C36.0624 18.6081 35.7477 18.2934 35.3593 18.2934H19.7041C17.5147 18.2934 15.7334 20.0747 15.7334 22.2642V46.7746C15.7334 47.7187 16.0781 48.6038 16.653 49.298H14.2487C13.5602 49.298 13 49.8606 13 50.5521V52.4471C13 54.2444 14.4512 55.7066 16.2349 55.7066H57.7652C59.5489 55.7066 61 54.2444 61 52.4471V50.5521C61 49.8607 60.4398 49.2981 59.7514 49.2981V49.2981ZM30.907 50.7043H43.0931V51.2727C43.0931 51.5073 42.8998 51.7056 42.6711 51.7056H31.329C31.1003 51.7056 30.907 51.5073 30.907 51.2727V50.7043ZM59.5938 52.4472C59.5938 53.469 58.7734 54.3005 57.7652 54.3005H16.2349C15.2266 54.3004 14.4062 53.469 14.4062 52.4472V50.7043H29.5008V51.2727C29.5008 52.2867 30.3209 53.1118 31.329 53.1118H42.6711C43.6792 53.1118 44.4993 52.2867 44.4993 51.2727V50.7043H59.5938V52.4472Z" fill="white"/>
<path d="M46.6489 41.5888C47.0373 41.5888 47.352 41.274 47.352 40.8856C47.352 40.0116 47.352 33.0603 47.352 32.0629V31.5939C47.352 31.2055 47.0373 30.8908 46.6489 30.8908C46.2605 30.8908 45.9458 31.2055 45.9458 31.5939V31.6159L43.4302 32.7948V31.8438C43.4302 30.4163 42.2688 29.255 40.8414 29.255H29.2376C27.8102 29.255 26.6489 30.4164 26.6489 31.8438V40.6355C26.6489 42.063 27.8103 43.2243 29.2376 43.2243H40.8413C42.2688 43.2243 43.4301 42.0629 43.4301 40.6355V39.6847L45.9457 40.8636V40.8854C45.9458 41.274 46.2605 41.5888 46.6489 41.5888V41.5888ZM42.0239 40.6356C42.0239 41.2876 41.4934 41.8182 40.8414 41.8182H29.2376C28.5856 41.8182 28.0552 41.2876 28.0552 40.6356V31.8439C28.0552 31.1919 28.5856 30.6613 29.2376 30.6613H40.8413C41.4933 30.6613 42.0238 31.1919 42.0238 31.8439C42.0239 32.7621 42.0239 39.6506 42.0239 40.6356ZM43.4302 38.1318V34.3479L45.9458 33.169V39.3108L43.4302 38.1318Z" fill="white"/>
<path d="M48.0596 29.5107C48.0596 30.76 49.0759 31.7763 50.3252 31.7763C51.5745 31.7763 52.5909 30.76 52.5909 29.5107C52.5909 28.2614 51.5745 27.2451 50.3252 27.2451C49.0759 27.2451 48.0596 28.2614 48.0596 29.5107ZM51.1846 29.5107C51.1846 29.9846 50.7991 30.3701 50.3252 30.3701C49.8513 30.3701 49.4658 29.9846 49.4658 29.5107C49.4658 29.0368 49.8513 28.6513 50.3252 28.6513C50.7991 28.6513 51.1846 29.0369 51.1846 29.5107Z" fill="white"/>
<path d="M37.6221 35.0498L34.6048 32.9924C33.6498 32.3411 32.3533 33.0265 32.3533 34.1822V38.2971C32.3533 39.4525 33.6496 40.1381 34.6048 39.4868L37.6221 37.4295C38.4598 36.8581 38.4594 35.621 37.6221 35.0498V35.0498ZM36.8297 36.2677L33.8124 38.325C33.7891 38.3412 33.7595 38.3251 33.7595 38.297V34.1821C33.7595 34.1555 33.7871 34.1367 33.8124 34.1541L36.8297 36.2114C36.85 36.2253 36.85 36.254 36.8297 36.2677Z" fill="white"/>
<path d="M54.6275 35.3022C55.0159 35.3022 55.3306 34.9875 55.3306 34.5991C55.3306 34.5439 55.3306 22.7893 55.3306 22.4964C55.3306 21.7854 54.7521 21.2069 54.0412 21.2069C53.6131 21.2069 20.6259 21.2069 19.9575 21.2069C19.2465 21.2069 18.6681 21.7854 18.6681 22.4964V46.5059C18.6681 47.2169 19.2465 47.7954 19.9575 47.7954H54.0412C54.7521 47.7954 55.3306 47.2169 55.3306 46.5059V37.8803C55.3306 37.4919 55.0159 37.1772 54.6275 37.1772C54.239 37.1772 53.9243 37.4919 53.9243 37.8803V46.3891H20.0744V26.0902H53.9243V34.5991C53.9243 34.9874 54.2391 35.3022 54.6275 35.3022V35.3022ZM22.4792 24.6839H20.0744V22.6132H22.4792V24.6839ZM23.8854 24.6839V22.6132H53.9243V24.6839H23.8854Z" fill="white"/>
</g>
<defs>
<clipPath id="clip0">
<rect width="48" height="48" fill="white" transform="translate(13 13)"/>
</clipPath>
</defs>
</svg>
