<svg width="168" height="51" viewBox="0 0 168 51" fill="none" xmlns="http://www.w3.org/2000/svg">
<path fill-rule="evenodd" clip-rule="evenodd" d="M13.7709 41.7553C13.8404 40.2876 14.0567 38.924 14.3929 37.6581L14.3863 37.6625L0 25.0155L16.9806 32.1939L17.02 32.148C17.4593 31.5594 17.935 31.0116 18.4421 30.503L18.4859 30.4525L10.7058 9.45504L24.9394 26.5593L25.023 26.5369C25.5542 26.3663 26.0935 26.2202 26.6393 26.0996L26.71 26.0805L31.0535 0L35.5755 26.2972L35.6698 26.3273C36.1578 26.4604 36.64 26.6137 37.1159 26.7869L37.2098 26.817L51.4551 9.53663L43.3797 30.7537L43.3876 30.7624C43.7824 31.1609 44.1574 31.5846 44.5136 32.0296L44.546 32.0662L61.8025 24.8982L47.4419 37.6348L47.4344 37.6291C47.8224 38.9005 48.0928 40.2697 48.2182 41.7437C41.7303 31.441 19.5281 31.7419 13.7709 41.7553ZM24.7818 50.4476C25.1515 44.8171 36.6043 44.8132 37.2637 50.4434C34.9129 46.0503 26.8676 46.1883 24.7818 50.4476ZM20.349 49.124C20.9786 39.5361 40.4798 39.5297 41.6029 49.1168C37.5997 41.6362 23.901 41.8711 20.349 49.124ZM15.6785 47.3761C16.5777 33.6852 44.4252 33.6758 46.0288 47.366C40.3122 36.6839 20.7505 37.0194 15.6785 47.3761Z" fill="#95C12B"/>
<path fill-rule="evenodd" clip-rule="evenodd" d="M73.0267 43.9313L73.0283 48.2678L75.4401 48.2669C75.6315 48.2669 75.7791 48.3141 75.8818 48.4084C75.9857 48.504 76.0364 48.6233 76.0364 48.7661C76.0364 48.9117 75.9857 49.031 75.8846 49.1211C75.7835 49.2113 75.6344 49.2571 75.4405 49.2571L72.5679 49.2582C72.3096 49.2582 72.1236 49.2001 72.01 49.0836C71.8964 48.9672 71.8392 48.7786 71.8389 48.5194L71.8374 43.9317C71.8374 43.6892 71.8918 43.5059 71.9999 43.3839C72.1078 43.2618 72.2499 43.2008 72.4265 43.2008C72.6041 43.2006 72.7491 43.2602 72.8601 43.3808C72.9706 43.5015 73.0267 43.6859 73.0267 43.9313ZM79.8369 48.733C79.5715 48.9409 79.316 49.0964 79.0697 49.2005C78.8225 49.3047 78.5449 49.356 78.2387 49.356C77.9584 49.3562 77.7111 49.2994 77.499 49.1872C77.2871 49.0749 77.1229 48.9238 77.0079 48.731C76.893 48.5382 76.8356 48.3303 76.8356 48.1057C76.8353 47.802 76.9296 47.5441 77.1198 47.3305C77.3095 47.1153 77.5707 46.9723 77.903 46.8988C77.9712 46.8822 78.1435 46.846 78.4183 46.789C78.6931 46.7322 78.9296 46.6808 79.1252 46.6322C79.3206 46.5848 79.534 46.528 79.7634 46.46C79.7498 46.1674 79.6923 45.9525 79.5897 45.8165C79.4855 45.6792 79.2739 45.6112 78.9497 45.6115C78.6721 45.6115 78.4631 45.6505 78.3236 45.7297C78.1828 45.8073 78.0626 45.9253 77.9628 46.0834C77.863 46.2402 77.792 46.3429 77.751 46.394C77.7086 46.444 77.6198 46.469 77.4843 46.469C77.3612 46.469 77.2547 46.4289 77.1658 46.3486C77.077 46.2694 77.0318 46.1668 77.0318 46.042C77.0316 45.8466 77.1 45.6567 77.2351 45.472C77.3718 45.2876 77.5839 45.1364 77.8723 45.0169C78.1607 44.8976 78.5201 44.838 78.9508 44.8377C79.4307 44.8375 79.8094 44.8956 80.0845 45.0106C80.3593 45.1257 80.5534 45.3073 80.6672 45.5569C80.7804 45.8065 80.838 46.1365 80.8382 46.5484C80.8382 46.8092 80.8371 47.0296 80.8356 47.2111C80.8343 47.393 80.833 47.5954 80.8304 47.8173C80.8306 48.0252 80.8648 48.243 80.9332 48.4691C81.0016 48.6937 81.0345 48.8393 81.0345 48.9045C81.0345 49.0181 80.9828 49.1222 80.8773 49.215C80.7707 49.308 80.6518 49.3554 80.5178 49.3554C80.4055 49.3554 80.295 49.3027 80.1856 49.1959C80.0761 49.0893 79.9599 48.9354 79.8369 48.733ZM79.7636 47.1256C79.6039 47.1855 79.3715 47.2493 79.0653 47.3144C78.7603 47.3811 78.5482 47.4311 78.4308 47.4616C78.3133 47.4936 78.2012 47.5546 78.0946 47.6447C77.9878 47.7364 77.9348 47.8625 77.9348 48.0261C77.9348 48.1941 77.9977 48.3369 78.1236 48.4547C78.2479 48.5726 78.412 48.6321 78.6157 48.6321C78.8318 48.6319 79.0313 48.5834 79.2131 48.4876C79.3963 48.3904 79.5303 48.2672 79.6165 48.1145C79.7147 47.9467 79.7638 47.6691 79.7638 47.2837L79.7636 47.1256ZM83.2656 45.4575L83.2658 45.592C83.4584 45.334 83.6687 45.1454 83.897 45.0246C84.1253 44.9037 84.3878 44.8443 84.6846 44.8441C84.973 44.8441 85.23 44.9077 85.4585 45.0351C85.6855 45.1615 85.855 45.3415 85.9671 45.5744C86.0397 45.7104 86.0864 45.856 86.1083 46.0141C86.1287 46.1707 86.1397 46.3705 86.1399 46.6146L86.1406 48.6795C86.1406 48.9014 86.0901 49.0692 85.9901 49.1828C85.8906 49.2968 85.7592 49.3536 85.5993 49.3536C85.4366 49.3536 85.3041 49.2955 85.2015 49.1791C85.1004 49.0626 85.0495 48.8961 85.0495 48.6797L85.0488 46.83C85.0488 46.465 84.9982 46.185 84.8982 45.9909C84.7984 45.7981 84.5986 45.7012 84.2992 45.7014C84.1049 45.7014 83.9275 45.7597 83.7661 45.8775C83.6062 45.9955 83.4887 46.1578 83.415 46.3644C83.3617 46.5295 83.3345 46.8374 83.3347 47.2908L83.3351 48.6803C83.3351 48.9051 83.2832 49.0729 83.1807 49.1852C83.0781 49.2977 82.9456 49.3545 82.7842 49.3545C82.627 49.3547 82.4971 49.2964 82.3958 49.1799C82.2947 49.0635 82.244 48.8972 82.244 48.6808L82.2429 45.4744C82.2429 45.2636 82.2879 45.1055 82.378 45.0016C82.4697 44.8976 82.5928 44.8447 82.75 44.8447C82.8456 44.8447 82.9331 44.8682 83.0099 44.9141C83.0875 44.9597 83.1492 45.029 83.1956 45.1206C83.2424 45.2134 83.2656 45.3257 83.2656 45.4575ZM91.5791 45.6573L91.5802 48.8786C91.5804 49.2475 91.5423 49.5639 91.4644 49.8289C91.3866 50.0951 91.2635 50.3142 91.0927 50.4877C90.9218 50.661 90.6977 50.7901 90.4216 50.8733C90.1455 50.9581 89.8011 50.9998 89.3908 51C89.0134 51 88.6772 50.9461 88.3804 50.8395C88.085 50.7327 87.8567 50.5941 87.6953 50.425C87.5352 50.2557 87.456 50.0824 87.4558 49.9034C87.4558 49.7677 87.5008 49.658 87.5911 49.5721C87.6826 49.4874 87.792 49.4444 87.9205 49.4444C88.0804 49.4442 88.2212 49.515 88.3418 49.6591C88.4004 49.7313 88.462 49.8047 88.5236 49.8797C88.5866 49.953 88.6563 50.0168 88.7316 50.0695C88.8081 50.1221 88.8995 50.1624 89.0061 50.1874C89.1129 50.2135 89.236 50.226 89.3739 50.226C89.6573 50.226 89.8757 50.1857 90.0316 50.1065C90.1889 50.026 90.2983 49.9151 90.3597 49.7708C90.4225 49.628 90.4593 49.474 90.4703 49.3104C90.4812 49.1468 90.4894 48.8845 90.4933 48.5213C90.3251 48.7599 90.131 48.9418 89.911 49.065C89.691 49.19 89.4283 49.2525 89.125 49.2525C88.7585 49.2527 88.4386 49.1584 88.1651 48.9685C87.8916 48.7788 87.6808 48.5139 87.5345 48.1715C87.388 47.8303 87.3141 47.4364 87.3139 46.9901C87.3137 46.6556 87.3589 46.3547 87.4477 46.087C87.5378 45.8194 87.6648 45.592 87.8304 45.4088C87.9955 45.2244 88.1857 45.0856 88.403 44.9913C88.6188 44.8983 88.8568 44.8511 89.1154 44.8509C89.4241 44.8509 89.6937 44.9119 89.9207 45.0323C90.1477 45.1529 90.3584 45.3428 90.5525 45.6007V45.4494C90.5525 45.2568 90.6003 45.1071 90.6931 45.0016C90.7861 44.8948 90.9063 44.8421 91.0539 44.8419C91.2646 44.8419 91.4054 44.9125 91.4752 45.0527C91.5449 45.1926 91.5791 45.3937 91.5791 45.6573ZM88.4133 47.0644C88.4133 47.5138 88.5107 47.8535 88.7035 48.0836C88.8978 48.3139 89.1465 48.4288 89.4542 48.4288C89.6347 48.4285 89.8068 48.3786 89.968 48.2803C90.1295 48.1816 90.2606 48.0318 90.3617 47.8336C90.4628 47.6338 90.5133 47.3925 90.5133 47.1081C90.513 46.6561 90.4146 46.3039 90.2189 46.0514C90.0235 45.8005 89.765 45.6744 89.445 45.6746C89.1333 45.6746 88.8831 45.7955 88.6947 46.0367C88.5072 46.2782 88.4131 46.6205 88.4133 47.0644ZM95.854 48.7246L95.8538 48.5819C95.7226 48.7496 95.586 48.8913 95.441 49.0049C95.2976 49.1187 95.1403 49.2034 94.9693 49.2589C94.7984 49.3144 94.6043 49.3422 94.3857 49.3424C94.1203 49.3424 93.8839 49.2869 93.6747 49.1762C93.4654 49.0652 93.3027 48.9128 93.1876 48.7174C93.0522 48.4816 92.9838 48.1432 92.9838 47.7009L92.9829 45.504C92.9829 45.281 93.0321 45.1158 93.1305 45.0062C93.2288 44.8967 93.3599 44.8413 93.5229 44.8413C93.6869 44.841 93.8209 44.8965 93.922 45.0075C94.0231 45.1182 94.074 45.2834 94.074 45.5038L94.0747 47.2789C94.0747 47.5355 94.0966 47.7518 94.1389 47.9266C94.1815 48.1011 94.258 48.2384 94.3688 48.3369C94.4795 48.4354 94.63 48.4851 94.8201 48.4851C95.0046 48.4851 95.1783 48.4294 95.341 48.3185C95.5035 48.2075 95.6224 48.0619 95.6976 47.8831C95.759 47.7263 95.7891 47.3824 95.7888 46.8513L95.7884 45.5031C95.7884 45.2827 95.8388 45.1176 95.9399 45.0068C96.0426 44.8959 96.175 44.8401 96.3378 44.8401C96.5005 44.8401 96.6319 44.8956 96.7303 45.0051C96.8301 45.1145 96.8795 45.2797 96.8795 45.5029L96.8806 48.7161C96.8806 48.9268 96.8328 49.085 96.7385 49.1918C96.6428 49.2972 96.5211 49.3499 96.3707 49.3499C96.2218 49.3501 96.0974 49.2946 96 49.185C95.9031 49.0755 95.854 48.9216 95.854 48.7246ZM101.064 48.7257C100.799 48.9338 100.543 49.0891 100.297 49.1933C100.05 49.2975 99.772 49.3488 99.4658 49.349C99.1856 49.349 98.938 49.2924 98.7261 49.1799C98.514 49.0676 98.3502 48.9168 98.2351 48.724C98.1201 48.5312 98.0627 48.3233 98.0627 48.0985C98.0625 47.7947 98.1568 47.5368 98.3467 47.3232C98.5366 47.1083 98.7978 46.9653 99.1301 46.8916C99.1983 46.8752 99.3704 46.839 99.6452 46.7819C99.9203 46.7251 100.157 46.6736 100.352 46.6249C100.548 46.5778 100.761 46.521 100.991 46.4528C100.977 46.1602 100.919 45.9453 100.817 45.8095C100.713 45.6722 100.501 45.6042 100.177 45.6042C99.8992 45.6045 99.69 45.6435 99.5507 45.7225C99.4099 45.8001 99.2897 45.9181 99.1899 46.0762C99.0902 46.233 99.0191 46.3356 98.9781 46.387C98.9358 46.4368 98.8469 46.4618 98.7114 46.4618C98.5884 46.462 98.4818 46.4218 98.393 46.3413C98.3039 46.2624 98.2587 46.1598 98.2587 46.035C98.2587 45.8393 98.3272 45.6494 98.4623 45.465C98.5989 45.2803 98.8108 45.1292 99.0994 45.0097C99.3878 44.8904 99.7472 44.8307 100.178 44.8305C100.658 44.8305 101.037 44.8886 101.311 45.0035C101.586 45.1185 101.78 45.3003 101.894 45.5496C102.008 45.7992 102.065 46.1295 102.065 46.5411C102.065 46.8019 102.064 47.0223 102.063 47.2041C102.061 47.3857 102.06 47.5884 102.057 47.8101C102.057 48.018 102.092 48.2358 102.16 48.4619C102.229 48.6865 102.262 48.8321 102.262 48.8972C102.262 49.011 102.21 49.115 102.104 49.208C101.998 49.301 101.879 49.3481 101.745 49.3481C101.633 49.3481 101.522 49.2955 101.413 49.1887C101.303 49.0821 101.187 48.9281 101.064 48.7257ZM100.991 47.1186C100.831 47.1783 100.598 47.2421 100.292 47.3072C99.9874 47.3739 99.7755 47.4239 99.6577 47.4546C99.5404 47.4866 99.4283 47.5476 99.3215 47.6377C99.2152 47.7294 99.1617 47.8555 99.1617 48.0191C99.1619 48.1869 99.2248 48.3299 99.3507 48.4476C99.4751 48.5654 99.6391 48.6248 99.8428 48.6248C100.059 48.6248 100.258 48.5764 100.44 48.4805C100.624 48.3834 100.757 48.2599 100.844 48.1073C100.942 47.9395 100.991 47.6621 100.991 47.2765V47.1186ZM107.414 45.6518L107.415 48.8733C107.416 49.2422 107.377 49.5585 107.299 49.8234C107.222 50.0896 107.099 50.3087 106.928 50.4822C106.757 50.6557 106.533 50.7846 106.257 50.868C105.981 50.9526 105.636 50.9945 105.226 50.9945C104.848 50.9947 104.512 50.9406 104.216 50.834C103.92 50.7274 103.692 50.5888 103.53 50.4197C103.37 50.2504 103.291 50.0771 103.291 49.8982C103.291 49.7624 103.336 49.6528 103.426 49.5668C103.518 49.4821 103.627 49.4392 103.756 49.4389C103.916 49.4389 104.057 49.5098 104.177 49.6539C104.235 49.726 104.297 49.7995 104.359 49.8743C104.422 49.9477 104.491 50.0116 104.567 50.0642C104.643 50.1168 104.735 50.1572 104.841 50.182C104.948 50.2083 105.071 50.2208 105.209 50.2208C105.492 50.2206 105.711 50.1802 105.867 50.1013C106.024 50.0208 106.133 49.9098 106.195 49.7655C106.258 49.6227 106.294 49.4688 106.305 49.3052C106.316 49.1413 106.324 48.8792 106.328 48.5161C106.16 48.7545 105.966 48.9363 105.746 49.0597C105.526 49.1845 105.263 49.2472 104.96 49.2472C104.594 49.2475 104.274 49.1532 104 48.9632C103.727 48.7735 103.516 48.5086 103.37 48.166C103.223 47.825 103.149 47.4311 103.149 46.9846C103.149 46.6504 103.194 46.3495 103.283 46.0817C103.373 45.8141 103.5 45.5865 103.665 45.4036C103.831 45.2191 104.021 45.0803 104.238 44.9858C104.454 44.893 104.692 44.8456 104.95 44.8456C105.259 44.8454 105.529 44.9064 105.756 45.027C105.983 45.1476 106.193 45.3376 106.388 45.5953V45.4441C106.387 45.2516 106.435 45.1018 106.528 44.9961C106.621 44.8895 106.741 44.8367 106.889 44.8367C107.1 44.8367 107.241 44.9073 107.31 45.0472C107.38 45.1873 107.414 45.3884 107.414 45.6518ZM104.248 47.0592C104.248 47.5083 104.346 47.8483 104.539 48.0783C104.733 48.3086 104.982 48.4235 105.289 48.4233C105.47 48.4233 105.642 48.3733 105.803 48.2748C105.965 48.1763 106.096 48.0266 106.197 47.8281C106.298 47.6285 106.349 47.387 106.348 47.1028C106.348 46.6508 106.25 46.2986 106.054 46.0462C105.859 45.7953 105.6 45.6692 105.28 45.6694C104.968 45.6694 104.718 45.79 104.53 46.0315C104.343 46.2729 104.248 46.6153 104.248 47.0592ZM111.698 47.3645L109.558 47.3651C109.561 47.6175 109.612 47.8395 109.709 48.0323C109.806 48.225 109.936 48.3691 110.097 48.4661C110.259 48.5645 110.438 48.613 110.632 48.613C110.763 48.6128 110.882 48.5976 110.99 48.5656C111.1 48.5351 111.204 48.4867 111.305 48.42C111.407 48.3533 111.5 48.2827 111.585 48.2064C111.671 48.1301 111.782 48.0274 111.918 47.8969C111.974 47.8485 112.054 47.8235 112.158 47.8233C112.27 47.8233 112.361 47.8553 112.431 47.9176C112.499 47.9785 112.535 48.0673 112.535 48.1809C112.535 48.281 112.495 48.3974 112.419 48.5318C112.341 48.665 112.225 48.7942 112.068 48.9161C111.912 49.0398 111.716 49.1424 111.48 49.2229C111.243 49.3049 110.971 49.3451 110.665 49.3451C109.962 49.3455 109.417 49.1418 109.027 48.7356C108.637 48.3294 108.443 47.7789 108.442 47.0826C108.442 46.7554 108.49 46.4504 108.586 46.1701C108.681 45.89 108.822 45.6501 109.005 45.4487C109.19 45.2492 109.417 45.0952 109.686 44.9882C109.955 44.8814 110.255 44.8272 110.583 44.827C111.011 44.827 111.377 44.9182 111.682 45.1013C111.988 45.2843 112.217 45.5198 112.37 45.8111C112.522 46.1008 112.599 46.3962 112.599 46.6971C112.599 46.9758 112.52 47.1574 112.363 47.241C112.205 47.3228 111.984 47.3645 111.698 47.3645ZM109.558 46.7328L111.54 46.7322C111.514 46.3536 111.413 46.0707 111.238 45.8821C111.063 45.695 110.833 45.6007 110.548 45.6007C110.274 45.601 110.051 45.6968 109.876 45.8869C109.701 46.0782 109.595 46.3598 109.558 46.7328ZM123.309 47.4548C123.31 47.814 123.218 48.1373 123.035 48.4244C122.853 48.7115 122.585 48.9363 122.233 49.0985C121.88 49.2611 121.461 49.3416 120.979 49.3418C120.399 49.342 119.921 49.231 119.544 49.0106C119.278 48.8514 119.062 48.6378 118.895 48.3715C118.728 48.1055 118.644 47.8461 118.644 47.5939C118.644 47.448 118.695 47.3232 118.795 47.2179C118.894 47.1138 119.022 47.0624 119.176 47.0624C119.302 47.0624 119.407 47.1026 119.493 47.1844C119.581 47.2647 119.655 47.3855 119.716 47.5463C119.79 47.7349 119.872 47.8943 119.958 48.0204C120.046 48.1478 120.168 48.2533 120.325 48.3367C120.484 48.4183 120.69 48.4597 120.947 48.4597C121.298 48.4595 121.586 48.3764 121.806 48.2099C122.026 48.0434 122.136 47.8353 122.136 47.5855C122.136 47.3875 122.077 47.2265 121.958 47.1043C121.839 46.9811 121.685 46.887 121.496 46.8217C121.309 46.7567 121.056 46.6874 120.741 46.6139C120.32 46.5144 119.966 46.3964 119.683 46.2635C119.399 46.1291 119.173 45.9459 119.006 45.7145C118.839 45.483 118.756 45.1959 118.756 44.8507C118.756 44.5235 118.843 44.2322 119.019 43.9767C119.195 43.7232 119.451 43.5273 119.785 43.39C120.118 43.2525 120.511 43.1845 120.962 43.1843C121.321 43.1841 121.633 43.23 121.897 43.3199C122.16 43.4113 122.378 43.532 122.552 43.6817C122.724 43.8313 122.851 43.9894 122.932 44.1544C123.012 44.3195 123.053 44.4816 123.053 44.6384C123.053 44.7814 123.002 44.9117 122.902 45.0268C122.803 45.1419 122.677 45.1989 122.528 45.1989C122.391 45.1989 122.289 45.1643 122.218 45.0963C122.146 45.027 122.07 44.9132 121.988 44.7566C121.88 44.532 121.752 44.3559 121.602 44.2298C121.453 44.1037 121.212 44.0414 120.88 44.0414C120.574 44.0416 120.325 44.1096 120.138 44.2469C119.949 44.3842 119.855 44.548 119.855 44.7408C119.855 44.8601 119.886 44.9625 119.951 45.0498C120.015 45.136 120.104 45.2108 120.216 45.2731C120.328 45.3356 120.442 45.384 120.557 45.42C120.671 45.4547 120.861 45.5058 121.125 45.5738C121.456 45.6527 121.757 45.7387 122.025 45.8341C122.293 45.9284 122.521 46.0435 122.71 46.1793C122.899 46.3137 123.045 46.4857 123.15 46.6922C123.256 46.9002 123.309 47.1539 123.309 47.4548ZM128.496 47.9676C128.496 48.1049 128.455 48.2533 128.373 48.4101C128.293 48.5669 128.168 48.7167 128.002 48.8582C127.835 48.9996 127.624 49.1148 127.37 49.201C127.117 49.2885 126.831 49.3315 126.513 49.3315C125.838 49.3317 125.31 49.1323 124.931 48.733C124.551 48.3336 124.36 47.7985 124.36 47.1258C124.36 46.671 124.447 46.2688 124.621 45.9192C124.794 45.5698 125.046 45.2992 125.374 45.1093C125.703 44.9176 126.096 44.8219 126.552 44.8217C126.835 44.8215 127.095 44.8632 127.332 44.9476C127.567 45.0321 127.768 45.1402 127.932 45.2733C128.096 45.4064 128.222 45.5477 128.308 45.6977C128.396 45.8486 128.439 45.9887 128.44 46.119C128.44 46.2521 128.39 46.3646 128.293 46.4574C128.195 46.549 128.077 46.5949 127.938 46.5949C127.848 46.5949 127.773 46.5714 127.712 46.5243C127.652 46.4771 127.585 46.401 127.51 46.2955C127.376 46.0902 127.236 45.935 127.091 45.8323C126.945 45.7299 126.76 45.6788 126.536 45.6788C126.214 45.6788 125.952 45.8065 125.756 46.0631C125.558 46.3183 125.459 46.6679 125.459 47.1116C125.46 47.3197 125.485 47.5109 125.536 47.6857C125.587 47.8605 125.659 48.0101 125.756 48.132C125.852 48.2555 125.968 48.3485 126.105 48.4123C126.24 48.4759 126.391 48.5077 126.553 48.5077C126.772 48.5077 126.96 48.4564 127.116 48.3538C127.273 48.2511 127.411 48.0928 127.531 47.882C127.597 47.7572 127.669 47.6601 127.747 47.5908C127.824 47.5199 127.919 47.4837 128.031 47.4837C128.165 47.4837 128.276 47.5364 128.363 47.639C128.451 47.7417 128.496 47.8511 128.496 47.9676ZM130.638 43.8552L130.639 45.4985C130.778 45.336 130.913 45.2073 131.046 45.1128C131.177 45.0185 131.324 44.9463 131.483 44.8989C131.645 44.8518 131.817 44.8283 132.002 44.8281C132.279 44.8281 132.525 44.8875 132.741 45.0068C132.956 45.1261 133.124 45.2992 133.247 45.5266C133.325 45.6584 133.377 45.8069 133.405 45.9718C133.431 46.1354 133.445 46.324 133.445 46.5376L133.445 48.6634C133.445 48.8854 133.395 49.0532 133.295 49.167C133.195 49.2808 133.061 49.3376 132.896 49.3376C132.535 49.3378 132.354 49.1133 132.354 48.6639L132.354 46.7903C132.353 46.4354 132.301 46.1622 132.197 45.9722C132.094 45.7808 131.895 45.6854 131.604 45.6854C131.41 45.6854 131.234 45.7422 131.078 45.8547C130.922 45.967 130.804 46.1199 130.728 46.3153C130.669 46.4804 130.639 46.7743 130.639 47.1973L130.64 48.6643C130.64 48.8836 130.591 49.0501 130.494 49.165C130.396 49.2804 130.261 49.3385 130.089 49.3387C129.73 49.3387 129.549 49.1141 129.549 48.6648L129.547 43.8554C129.547 43.6309 129.595 43.4631 129.689 43.3506C129.783 43.2383 129.916 43.1813 130.087 43.1813C130.259 43.1813 130.395 43.2381 130.492 43.3517C130.589 43.4655 130.638 43.6333 130.638 43.8552ZM138.95 47.082C138.95 47.4136 138.9 47.7173 138.799 47.9961C138.696 48.2748 138.55 48.5147 138.357 48.7145C138.166 48.9156 137.935 49.0683 137.668 49.1753C137.402 49.2821 137.101 49.3363 136.768 49.3363C136.435 49.3365 136.137 49.2826 135.873 49.1744C135.609 49.0663 135.38 48.9111 135.185 48.7086C134.992 48.5077 134.845 48.2691 134.745 47.9948C134.645 47.7186 134.594 47.4151 134.594 47.0822C134.594 46.7466 134.645 46.4387 134.746 46.16C134.848 45.8812 134.993 45.6426 135.183 45.4441C135.373 45.2472 135.602 45.0948 135.872 44.9878C136.141 44.8807 136.439 44.8268 136.766 44.8265C137.097 44.8265 137.398 44.8803 137.667 44.9884C137.936 45.0968 138.168 45.2518 138.36 45.4527C138.553 45.6525 138.699 45.8911 138.799 46.1683C138.899 46.4442 138.95 46.7493 138.95 47.082ZM137.851 47.0824C137.851 46.6304 137.752 46.2795 137.557 46.0273C137.359 45.7762 137.097 45.6503 136.766 45.6503C136.552 45.6505 136.364 45.706 136.201 45.8183C136.039 45.9308 135.913 46.0973 135.826 46.3164C135.737 46.5354 135.693 46.792 135.693 47.0831C135.693 47.373 135.737 47.6268 135.824 47.8432C135.911 48.0595 136.034 48.2259 136.196 48.3408C136.357 48.456 136.548 48.5128 136.767 48.5125C137.098 48.5125 137.36 48.3862 137.557 48.1325C137.753 47.88 137.851 47.5291 137.851 47.0824ZM144.234 47.0802C144.234 47.4118 144.184 47.7156 144.083 47.9943C143.98 48.2731 143.834 48.513 143.641 48.7128C143.45 48.9139 143.219 49.0665 142.952 49.1736C142.686 49.2804 142.385 49.3345 142.051 49.3345C141.719 49.3348 141.421 49.2808 141.157 49.1727C140.893 49.0646 140.663 48.9093 140.469 48.7069C140.276 48.506 140.129 48.2674 140.029 47.993C139.929 47.7169 139.878 47.4131 139.878 47.0804C139.878 46.7449 139.928 46.437 140.03 46.1582C140.132 45.8795 140.277 45.6409 140.467 45.4424C140.657 45.2454 140.886 45.0928 141.156 44.986C141.425 44.879 141.723 44.825 142.05 44.8248C142.381 44.8248 142.682 44.8785 142.951 44.9867C143.22 45.0948 143.451 45.2501 143.644 45.4509C143.837 45.6507 143.983 45.8891 144.083 46.1666C144.183 46.4425 144.234 46.7475 144.234 47.0802ZM143.135 47.0807C143.134 46.6286 143.036 46.2778 142.841 46.0255C142.643 45.7744 142.381 45.6485 142.05 45.6485C141.835 45.6488 141.648 45.7042 141.485 45.8165C141.323 45.929 141.197 46.0953 141.11 46.3144C141.021 46.5337 140.977 46.7903 140.977 47.0813C140.977 47.3712 141.021 47.625 141.107 47.8412C141.195 48.0577 141.318 48.2241 141.479 48.3391C141.641 48.4542 141.832 48.5108 142.051 48.5108C142.382 48.5108 142.644 48.3845 142.841 48.1307C143.037 47.8783 143.135 47.5274 143.135 47.0807ZM145.425 48.6595L145.423 43.8502C145.423 43.6282 145.473 43.4605 145.569 43.3466C145.667 43.233 145.798 43.176 145.963 43.176C146.127 43.1758 146.261 43.2328 146.362 43.3449C146.464 43.4574 146.514 43.6252 146.514 43.8497L146.516 48.659C146.516 48.8838 146.464 49.0516 146.362 49.1639C146.259 49.2764 146.127 49.3332 145.965 49.3332C145.805 49.3334 145.675 49.2751 145.576 49.1586C145.476 49.0422 145.425 48.876 145.425 48.6595Z" fill="black"/>
<path fill-rule="evenodd" clip-rule="evenodd" d="M101.147 38.3524C99.5476 38.3511 98.4076 37.235 98.3492 35.6448L98.3462 26.7076C98.3453 24.3399 106.686 21.7566 106.689 31.471C106.69 34.7925 104.847 38.3575 101.147 38.3524ZM90.9027 40.7118C91.5893 40.7116 91.7966 40.5041 91.7964 39.8177L91.7907 22.8367C91.7905 22.1502 91.583 21.943 90.8965 21.9432L87.9174 21.9443L87.9237 40.7127L90.9027 40.7118ZM89.7039 15.2223C90.8615 15.2219 91.8006 16.1601 91.8008 17.3179C91.8012 18.4754 90.863 19.4145 89.7052 19.415C88.5477 19.4152 87.6088 18.4767 87.6086 17.3192C87.6082 16.1617 88.5464 15.2226 89.7039 15.2223ZM154.36 45.7549C153.282 46.1124 153.139 45.3143 151.976 45.4578C151.131 45.4582 150.487 46.2936 150.487 47.2458C150.488 48.4358 151.72 49.3304 152.872 49.3302C159.33 49.328 160.323 42.5799 162.06 37.6662L167.46 21.9173L164.207 21.9184C162.81 26.1891 161.413 30.4598 160.017 34.7303C159.849 35.1307 159.689 35.1033 159.537 34.7314L154.948 21.9217L150.777 21.923C151.599 24.0398 154.648 32.4088 155.456 34.5246C155.882 35.5755 157.811 40.1017 157.778 40.6353C157.654 42.6479 155.895 44.9419 154.36 45.7549ZM71.8281 15.9915L71.8362 39.8245C71.8365 40.5112 72.0439 40.7182 72.7302 40.7179L86.1363 40.7133L86.1355 38.6277C86.1352 37.9417 85.928 37.7342 85.2415 37.7344L76.3041 37.7373L76.2973 17.1587L76.2968 15.9902C76.2966 15.3035 76.0892 15.0962 75.4029 15.0967C74.509 15.0969 73.6153 15.0971 72.7216 15.0976C72.0354 15.0978 71.8279 15.3048 71.8281 15.9915ZM143.031 19.8402L143.031 21.9257L140.648 21.9265L140.648 23.7139L143.032 23.7133L143.036 36.8212C143.037 39.5516 144.912 40.9427 147.804 40.9901C148.73 40.9899 150.771 40.8333 150.783 39.7979C150.782 37.9259 146.754 39.7558 146.612 37.4162L146.607 23.712L150.182 23.7109L150.182 22.8169C150.181 22.1303 149.974 21.9232 149.287 21.9235L146.606 21.9243L146.605 17.7539C146.605 17.2661 146.426 16.86 146.008 16.8602C145.278 16.8604 143.03 19.1095 143.031 19.8402ZM129.328 25.5053L129.333 39.2093L129.334 40.6989L132.015 40.698C133.571 40.6973 132.906 34.9064 132.906 33.2497C132.905 30.4692 132.904 27.6888 132.903 24.9083C132.957 24.2811 133.551 23.7164 134.392 23.7161C135.648 23.7157 136.98 24.9928 138.074 25.5638C139.182 26.1435 140.614 24.9938 140.053 23.7142C139.33 22.3502 138.438 21.7009 136.775 21.6298C136.365 21.618 135.969 21.6118 135.585 21.6105C132.434 21.6114 129.327 22.2636 129.328 25.5053ZM115.638 28.5741C115.676 26.1678 117.483 24.0199 119.795 24.019C121.398 24.0186 122.931 25.8939 123.059 27.4962L115.638 28.5741ZM112.051 31.1715L112.052 32.0652C112.053 37.216 115.004 41.2994 120.098 41.2976C124.215 41.2963 127.23 38.2336 127.528 34.4496C127.629 33.5126 127.198 33.5436 126.352 33.5497C125.044 33.5501 123.975 37.7213 120.693 37.7224C116.788 37.7237 115.333 33.1115 115.613 30.9857C115.725 30.9629 126.057 29.4755 126.666 29.4139C127.158 29.3448 127.259 28.811 127.244 28.1871C127.242 24.1405 124.205 21.3364 120.092 21.3377C114.723 21.3394 112.05 25.6612 112.051 31.1715ZM94.4689 13.8986V13.9723C94.467 14.1003 94.4687 14.2444 94.4689 14.4067V14.4631L94.4692 15.0671L94.4766 36.8376C94.4777 40.1037 97.8233 41.3051 101.032 41.304C107.702 41.3018 110.266 36.5071 110.264 30.5655C110.262 26.3332 108.924 21.3414 103.707 21.3432C101.482 21.344 99.6838 22.2351 98.3449 23.1325L98.3422 15.0658L98.342 14.4497L98.3418 13.8973C98.3416 13.2106 98.1339 13.0035 97.4479 13.0038H97.1498L96.514 13.004H96.2958L95.9581 13.0042L95.3622 13.0044C94.6762 13.0046 94.4685 13.2119 94.4689 13.8986Z" fill="black"/>
</svg>
